<?xml version="1.0" encoding="UTF-8"?>
<svg width="206" height="120" viewBox="0 0 206 120" fill="none" xmlns="http://www.w3.org/2000/svg">
<path d="M124.059 32.8623C124.42 33.1629 124.42 34.9365 124.059 35.2372V32.8623Z" fill="#F2DEBA"/>
<path d="M91.713 42.5118C91.9234 42.151 93.5768 42.151 93.8172 42.5118H91.713Z" fill="#B81C1C"/>
<path d="M101.573 54.5664H103.677C103.467 54.9271 101.814 54.9271 101.573 54.5664Z" fill="#C2701A"/>
<path d="M31.6504 65.2983C32.1314 67.583 31.7105 70.8296 31.8608 73.475H31.6504V65.2983Z" fill="#EDBDB0"/>
<path d="M147.387 65.96C149.07 65.5993 152.226 65.5993 153.91 65.96H147.387Z" fill="#EDBDB0"/>
<path d="M128.478 67.6733C128.959 68.6654 128.538 70.6193 128.688 71.9721H128.478V67.6733Z" fill="#F2DEBA"/>
<path d="M112.515 68.7554H112.726C112.576 69.7775 112.996 71.3406 112.515 71.9719V68.7554Z" fill="#D1544F"/>
<path d="M53.7154 69.1763C54.0761 75.399 54.0761 83.1548 53.7154 89.3775V69.1763Z" fill="#D1544F"/>
<path d="M136.655 76.0605H136.444V82.7342H136.655V76.0605Z" fill="#EBC785"/>
<path d="M110.411 77.1431C110.111 77.5038 108.397 77.5038 108.097 77.1431H110.411Z" fill="#F2DEBA"/>
<path d="M183.701 77.564C184.062 81.0811 184.062 86.1014 183.701 89.5885V77.564Z" fill="#F2DEBA"/>
<path d="M152.197 84.8687H152.407V88.957C151.926 88.0251 152.347 86.1613 152.197 84.8687Z" fill="#D1544F"/>
<path d="M186.857 91.7529V93.8873H187.068V93.6769V91.7529H186.857Z" fill="#EDBDB0"/>
<path d="M53.084 93.2561C53.5048 92.7751 54.8275 93.1659 55.6091 93.0456V93.2561H53.084Z" fill="#F2DEBA"/>
<path d="M78.065 94.0977C76.111 94.4584 72.684 94.4584 70.73 94.0977H78.065Z" fill="#F2DEBA"/>
<path d="M125.742 94.0977C123.157 94.4584 119.099 94.4584 116.513 94.0977H125.742Z" fill="#F2DEBA"/>
<path d="M163.98 94.5488C163.68 94.9096 161.966 94.9096 161.666 94.5488H163.98Z" fill="#F2DEBA"/>
<path d="M59.5772 98.8477C60.1484 98.487 62.1625 98.487 62.7337 98.8477H59.5772Z" fill="#DE8A7D"/>
<path d="M74.9087 98.8472H74.6982V104.859H74.9087V98.8472Z" fill="#D1544F"/>
<path d="M74.9092 98.8472H79.3282V99.9294C78.4264 100.08 76.9533 99.6588 76.3822 100.14V101.012C76.8932 101.493 78.2761 101.072 79.1178 101.222V102.304C78.2761 102.455 76.8932 102.034 76.3822 102.515V103.597C76.8632 104.348 79.208 103.146 79.3282 104.228C79.0276 105.611 76.2619 104.529 74.9092 104.859V98.8472Z" fill="#C41230"/>
<path d="M111.042 98.8472H110.832V104.859H111.042V98.8472Z" fill="#D1544F"/>
<path d="M121.324 98.8472H121.113V104.859H121.324V98.8472Z" fill="#D1544F"/>
<path d="M76.3818 100.14C76.9529 99.659 78.3959 100.08 79.3278 99.9296C78.7566 100.411 77.2836 99.9897 76.3818 100.14Z" fill="#D1544F"/>
<path d="M76.3818 100.981C77.2235 101.132 78.6063 100.711 79.1174 101.192C78.2756 101.072 76.8928 101.492 76.3818 100.981Z" fill="#DE8A7D"/>
<path d="M122.796 101.192V100.981C123.638 101.132 125.021 100.711 125.532 101.192H122.796Z" fill="#DE8A7D"/>
<path d="M76.3818 102.485C76.8928 102.004 78.2756 102.394 79.1174 102.274C78.6063 102.785 77.2235 102.364 76.3818 102.485Z" fill="#DE8A7D"/>
<path d="M115.251 50.0575C115.311 49.5464 115.912 49.5765 116.093 49.1857C116.454 49.0053 116.754 48.7047 116.935 48.3139C117.355 48.2538 117.355 47.7427 117.776 47.6826C117.055 48.6145 116.243 49.4262 115.251 50.0575Z" fill="#C2701A"/>
<path d="M94.2382 15.2164C96.1922 14.495 98.0861 13.7134 100.551 13.5029H103.287C114.86 14.6152 121.203 21.1084 122.616 32.6219C122.646 32.7422 122.556 32.9226 122.616 33.0428C121.985 31.7502 121.233 29.4655 120.091 28.3232C121.354 20.8379 112.936 16.96 106.864 19.7256C105.902 19.0042 105.03 18.1624 103.497 18.0121C103.828 17.5011 104.279 17.1103 104.128 16.0882C105.12 15.9379 105.511 16.3888 106.022 16.7496C106.173 17.5612 104.91 16.8999 105.181 17.8318C109.209 21.6195 108.848 13.052 103.287 14.8256C102.265 14.2244 100.822 14.8256 100.341 15.4569C98.537 14.6753 95.7112 15.3066 94.2382 15.2164Z" fill="#B5121C"/>
<path d="M99.9198 21.0185V22.3112C100.371 22.9725 101.724 22.7922 102.235 22.3112C102.655 20.6578 100.701 20.1167 99.9198 21.0185ZM109.99 34.9971C110.622 34.9971 111.043 34.3658 110.622 33.9149C109.99 33.9149 109.57 34.5462 109.99 34.9971ZM97.1842 34.1253C97.9658 34.0952 98.5671 33.1032 98.026 32.4118C97.2444 32.4419 96.7033 33.494 97.1842 34.1253ZM105.571 30.2774C105.541 29.7965 105.03 29.8265 104.519 29.8566C104.279 30.0971 104.279 30.6081 104.309 31.1492C104.94 31.059 105.391 30.8185 105.571 30.2774ZM91.0818 28.7744C91.4425 29.2854 92.3143 29.2554 93.1861 29.1952C93.8775 26.8504 90.6609 26.2192 91.0818 28.7744ZM93.3965 20.8081C93.126 21.5296 93.5168 23.1529 94.6591 23.183C94.7192 22.7922 94.4186 22.702 94.4487 22.3112C97.4849 22.5817 94.3585 18.1327 93.3965 20.8081ZM113.568 25.9787C113.447 26.8805 113.688 27.4216 113.989 27.9026H115.251C115.311 26.61 114.83 25.9185 113.568 25.9787ZM101.182 18.0124C103.377 18.5235 103.978 16.2989 102.866 15.2167C100.671 14.6756 100.371 16.7498 101.182 18.0124ZM98.4468 39.0854C99.7094 42.6026 101.483 45.5787 101.603 50.2682C101.243 51.11 100.431 51.5008 100.551 52.8535C103.467 51.8916 103.708 48.2241 106.022 46.6308C105.481 46.2701 106.203 45.3983 106.443 45.1277C106.924 45.3081 107.255 45.5787 107.916 45.5486C108.006 44.5866 106.774 44.9774 106.654 44.256C107.135 44.0155 107.014 43.2038 107.495 42.9633C107.976 43.0235 108.277 43.294 108.968 43.1738C108.968 42.302 107.525 42.9333 107.706 41.8811C108.036 40.4081 108.668 39.2658 108.547 37.3719C109.479 37.432 109.87 38.0333 111.073 37.7928C112.966 37.2517 112.065 34.5161 112.546 32.8627C112.756 32.1112 113.477 31.8707 113.598 31.1492C114.199 27.3916 111.463 24.5357 107.706 24.4756C107.886 23.2731 107.044 22.0106 107.285 21.4695C108.006 21.71 108.848 21.8603 108.968 22.7621C108.728 23.0627 108.066 22.9725 108.337 23.8443C108.577 24.0848 109.089 24.0848 109.6 24.0547C109.96 23.694 109.78 22.7922 109.81 22.1308C109.058 21.5296 108.457 20.7781 106.864 21.0486C104.068 16.2989 94.7793 18.7339 95.3204 24.9265C94.2683 24.8363 93.7873 25.3474 93.2161 25.7983C92.8554 27.5118 93.8474 27.8725 93.8474 29.2253C91.9536 30.5781 88.9474 31.7204 90.2701 35.6885C92.0738 37.7627 96.4628 36.7707 96.7934 34.3958C96.9437 33.2535 95.6812 30.9388 94.0579 31.3897C92.0738 31.9308 93.4566 36.5603 95.11 33.975C95.11 33.1934 93.8174 33.7345 93.8474 32.8928C94.2683 32.8327 94.2683 32.3216 94.6891 32.2314C98.5069 33.7946 92.3143 37.4922 90.691 34.8167C90.5106 31.8406 93.1861 31.7805 94.6891 30.5179C95.0499 28.594 93.8474 28.2333 93.8474 26.64C94.118 26.129 94.5388 25.7682 95.3204 25.7682C95.7112 28.2333 96.072 30.7284 98.2664 31.3596C98.3566 30.6682 97.6051 30.8787 97.8456 30.067C98.4468 29.1351 101.814 28.9247 101.633 30.6983C100.972 31.5701 99.8296 29.4958 99.529 30.6983C99.529 31.7805 101.573 31.6603 102.265 31.3296C102.385 28.594 100.311 28.083 97.8456 28.5339C97.4548 28.7744 97.545 29.5259 97.2143 29.8265C96.5229 28.8044 95.8916 27.7222 95.9517 25.9486C96.6732 25.7682 96.7634 26.2793 97.4247 26.159C97.3947 25.0167 95.9818 25.3173 95.7413 24.4455C95.9517 19.6357 102.986 17.321 106.022 21.0185C105.872 21.6498 105.03 21.5897 105.181 22.5216C105.992 22.6419 106.022 21.2891 106.654 21.8603C107.225 24.7762 106.924 27.602 104.549 28.083C102.746 28.4437 99.499 27.0609 99.499 25.7081C99.529 23.9345 103.287 23.3633 103.497 25.7081C102.866 26.0087 102.204 24.9566 102.235 25.9185C102.355 26.8805 103.227 27.0609 104.339 27.0008C106.022 23.2731 98.9879 21.9504 98.6573 25.0768C98.4168 27.3615 102.836 30.037 105.601 29.1652C107.315 28.6241 107.285 26.6701 108.127 25.0768C111.073 25.1069 114.74 29.4057 111.704 31.51C110.832 31.1492 108.397 30.4578 109.6 29.3455C110.111 30.0069 110.802 31.029 111.914 30.4278C112.365 28.0529 109.57 27.4817 108.337 28.7143C108.247 29.7363 108.638 30.2774 108.758 31.0891C109.66 31.9008 111.253 31.9609 111.914 33.013C112.245 36.8308 109.089 36.8308 106.864 35.3879C106.233 37.0412 105.541 38.6345 104.339 39.6866C103.828 38.6345 104.098 36.8008 102.866 36.4701H102.445C102.325 36.4701 102.204 36.44 102.235 36.2597H103.497C104.339 35.7486 104.7 33.7345 103.918 32.8327C104.549 31.9909 107.826 31.6603 108.127 33.0431C108.217 33.7044 107.856 33.9149 107.495 34.1253C107.135 33.7345 106.894 33.1633 106.022 33.2535C105.722 35.0873 107.736 35.2676 108.758 34.5462C108.938 34.0051 109.028 33.4038 108.968 32.6222C107.435 30.8185 104.369 31.8707 102.024 32.2014C101.994 33.2235 102.776 33.4339 103.497 33.7044C103.527 34.5161 103.647 35.448 102.655 35.2075C102.385 33.7044 100.852 33.4639 99.2885 33.2836C98.7174 34.5462 100.792 36.8609 98.6573 37.3719C98.5971 36.921 98.0861 36.9511 97.8155 36.7406C97.7554 37.2517 97.8456 37.5523 98.026 37.8228H96.9738C96.5229 37.2817 96.6131 36.1695 95.7112 36.1093C95.2904 37.6425 96.2523 39.5063 98.4468 39.0854ZM100.341 15.4271C100.822 14.7658 102.235 14.1646 103.287 14.7959C103.557 15.2468 103.858 15.6376 104.128 16.0885C104.279 17.1106 103.828 17.5014 103.497 18.0124C105.03 18.1627 105.872 19.0044 106.864 19.7259C106.894 20.5676 107.976 20.3271 108.547 20.5977C109.99 20.9284 111.073 22.4916 110.441 24.2652C110.592 24.5658 110.892 24.656 111.283 24.686C111.554 25.4075 112.516 25.4376 112.756 26.1891C112.997 25.648 113.508 25.3774 114.439 25.5578H114.86C115.161 26.0388 115.582 26.3995 115.912 26.8504V27.7222V28.1431C115.582 28.594 114.86 28.6541 114.019 28.5639C113.989 28.9547 114.289 29.0149 114.229 29.4357V31.3596C113.868 31.6603 113.898 32.3216 113.598 32.6523C113.508 32.983 112.936 32.8327 113.177 33.5241C113.297 34.8768 112.997 35.7787 112.756 36.7406C112.365 37.432 111.914 38.0333 111.283 38.4541H109.81C109.81 38.2437 109.539 38.2738 109.389 38.2437C108.608 39.0253 108.878 40.859 108.337 41.9112C108.367 42.302 109.058 42.0314 109.179 42.332C109.359 42.302 109.389 42.4222 109.389 42.5425V43.6247C109.209 43.7449 109.058 43.8351 108.758 43.8351H107.495C107.495 44.7069 109.149 44.7069 108.337 45.759C107.976 46.6008 106.864 45.729 106.443 46.1799C106.624 46.4204 106.714 46.7511 106.654 47.2621C106.473 47.4425 106.082 47.3824 106.022 47.683C104.579 48.4946 104.219 50.4486 103.076 51.5609C102.806 53.575 98.5971 54.2363 100.13 51.3505C100.822 50.9296 101.333 49.156 100.762 48.1339C100.431 46.5406 99.9198 45.1277 99.499 43.6247C99.2284 42.813 98.9879 42.0014 98.6573 41.2498C98.4168 40.7689 98.2965 40.1676 98.026 39.7468H96.7634C96.102 38.9051 94.9296 38.6044 95.08 36.9511C94.2984 37.402 92.7051 37.5824 91.7131 37.1615C90.4505 36.9511 89.8793 36.0192 89.3983 35.0271C89.3983 33.7345 89.3082 32.3517 89.8192 31.6001C90.3303 30.9087 90.9315 30.3075 91.7131 29.8866C91.2622 29.556 90.6309 29.4057 90.4505 28.8044C90.3603 27.2713 90.9014 26.3995 92.3444 26.4296C92.7352 25.8284 92.8855 24.9566 93.6069 24.7161C93.9376 24.4155 94.599 24.4155 94.8695 24.0547C93.2462 23.8443 92.7953 22.4615 92.9757 20.3873C93.4566 19.0946 95.9217 18.9143 96.1321 20.5977C97.2143 19.5455 98.3266 18.5235 99.9198 18.0124H100.551C100.461 17.0805 99.7996 16.3891 100.341 15.4271Z" fill="white"/>
<path d="M103.257 14.7958C108.818 13.0221 109.179 21.5896 105.15 17.8019C104.88 16.87 106.142 17.5313 105.992 16.7197C105.481 16.389 105.09 15.908 104.098 16.0884C103.858 15.6375 103.527 15.2467 103.257 14.7958Z" fill="#BD382B"/>
<path d="M87.5045 20.387C89.3081 18.1926 91.5928 16.5392 94.2382 15.2165C95.7413 15.3067 98.537 14.6754 100.341 15.4269C99.7996 16.3889 100.461 17.0803 100.551 18.0122H99.9198C99.8296 17.5613 100.07 17.441 100.13 17.1404C91.5026 14.2545 84.4983 23.4232 88.1658 31.7502C88.9474 31.9005 89.0676 31.3895 89.8492 31.5398C89.3382 32.2913 89.4284 33.6742 89.4284 34.9668C88.8873 34.7564 88.7069 34.1251 88.1658 33.8846C83.7769 37.1312 90.9315 37.7625 91.3222 40.7686C91.7732 44.1956 86.5124 46.2097 89.0075 49.1557C87.9554 48.2238 87.0836 47.1116 86.2719 45.9392C86.7529 43.4441 89.0075 42.7226 89.0075 39.7165C86.2719 38.7846 83.4762 34.1852 87.3241 32.4116C85.2799 29.0146 85.9713 22.6116 88.1658 19.9361C87.9854 20.0263 87.8051 20.1165 87.7449 20.357H87.5045V20.387Z" fill="#BD382B"/>
<path d="M87.5044 20.3872H87.7149C87.7449 20.1467 87.9554 20.0565 88.1357 19.9663C85.9412 22.6418 85.2498 29.0148 87.294 32.4418C83.4461 34.2154 86.2419 38.8148 88.9774 39.7467C88.9774 42.7528 86.7529 43.4743 86.2419 45.9694C85.4001 44.5565 84.348 43.2939 83.9271 41.4602C84.9793 42.8129 87.3541 41.7007 88.1357 40.8289C88.256 38.3037 83.386 36.8307 83.7167 40.6185H83.5063C82.5443 37.9731 81.9731 33.554 82.875 30.3074C83.386 30.7283 83.9271 31.1191 84.9793 30.9387C85.1596 30.0369 84.6486 29.8565 84.1376 29.6461C84.6486 29.3154 85.4302 29.2553 85.6106 28.5639C85.9412 26.7301 84.4682 26.7 84.348 25.3473C85.1897 23.4534 86.2719 21.8301 87.5044 20.3872Z" fill="#B5121C"/>
<path d="M93.6069 24.686C91.0818 24.9565 90.3302 20.6578 92.9756 20.3872C92.7652 22.4614 93.2462 23.8443 94.8695 24.0547C94.5989 24.3854 93.9376 24.3854 93.6069 24.686Z" fill="#BD382B"/>
<path d="M84.3781 25.3169C84.4983 26.6997 85.9413 26.6997 85.6406 28.5335C85.4903 29.2249 84.6787 29.285 84.1676 29.6157C84.6787 29.8261 85.1897 29.9764 85.0094 30.9083C83.9572 31.0586 83.4161 30.6678 82.9051 30.277C82.875 28.1126 83.8971 27.0003 84.3781 25.3169Z" fill="#BD382B"/>
<path d="M91.5026 28.3234C91.4425 27.9626 91.713 27.9626 91.713 27.6921C92.2542 27.6319 92.4045 27.9927 92.3443 28.5638C91.8934 28.654 91.8032 28.4135 91.5026 28.3234Z" fill="white"/>
<path d="M98.0259 32.4116C98.567 33.1331 97.9658 34.0951 97.1842 34.1251C96.7032 33.4938 97.2443 32.4417 98.0259 32.4116Z" fill="#D69E0F"/>
<path d="M88.9775 49.1857C86.4824 46.2397 91.7131 44.2256 91.2922 40.7986C90.9014 37.7925 83.7468 37.1612 88.1358 33.9146C88.6769 34.125 88.8572 34.7563 89.3983 34.9968C89.8793 36.0188 90.4204 36.9507 91.7131 37.1311C92.7051 38.7244 94.5989 39.3557 96.7634 39.7164H98.0259C98.2965 40.1373 98.4167 40.7385 98.6572 41.2195C96.8235 40.7685 97.2143 43.8047 98.0259 44.2256C99.0781 44.5863 98.8677 42.9931 99.499 43.5943C99.9198 45.0974 100.431 46.5103 100.762 48.1035V49.6066C99.8296 49.2158 99.3486 48.3139 97.8155 48.5244C97.9057 50.1477 98.9278 50.8391 100.13 51.3201C98.5971 54.206 102.776 53.5747 103.076 51.5305C103.858 51.5305 104.189 51.1096 104.549 50.6587C105.932 51.5305 107.225 52.4925 108.337 53.6649C107.014 54.1458 105.391 54.3563 103.708 54.5366H101.603C98.5971 54.3863 96.2523 53.5446 94.0278 52.6127C97.7554 51.2599 100.762 42.4219 93.8174 42.5121C93.5769 42.1514 91.9536 42.1514 91.7131 42.5121C87.8953 44.8268 94.5388 51.6207 95.0799 45.7287C94.629 45.2777 93.5167 45.9992 92.5548 45.7287C92.4345 44.8268 92.675 44.2557 92.9756 43.8047C98.9579 43.0231 95.2603 51.1096 91.9235 51.3201C90.7812 50.779 89.9394 49.9373 88.9775 49.1857Z" fill="#B5121C"/>
<path d="M103.046 38.0032C102.625 37.9431 102.625 38.3038 102.415 38.424C101.513 38.424 101.573 37.402 100.942 37.1314C100.281 37.9731 101.814 38.3639 101.994 39.0553C102.084 39.5664 101.603 39.5363 101.784 40.1375C100.972 40.1075 100.942 39.2658 100.311 39.0553C100.16 40.4382 101.483 40.2878 101.152 41.851C101.573 41.4602 103.617 42.6026 102.836 44.0154C102.204 44.0154 102.114 43.4443 101.573 43.3842C101.754 44.1658 102.535 44.5866 101.994 45.5486C102.655 45.6989 102.385 44.9474 103.046 45.1277C103.106 45.5786 103.617 45.5486 103.677 45.9995V46.2099C103.136 47.0216 102.655 47.8633 101.994 48.5848C101.964 44.5265 100.491 41.9412 99.4689 38.905C100.07 38.0332 100.792 36.8608 100.311 35.478C100.671 36.0191 101.152 36.5001 102.204 36.3498C102.174 36.5302 102.295 36.5602 102.415 36.5602C102.204 37.432 103.136 37.2216 103.046 38.0032Z" fill="#FFC426"/>
<path d="M106.834 37.1612C106.744 36.6502 107.225 36.6802 107.044 36.079C108.006 35.8986 107.826 37.5219 106.834 37.1612Z" fill="white"/>
<path d="M120.271 43.8049C119.43 42.392 119.309 40.1975 118.167 39.0853C119.37 38.0331 122.135 38.5742 122.376 36.5H122.586C122.135 39.2656 121.444 41.7607 120.271 43.8049Z" fill="#B5121C"/>
<path d="M91.713 37.1611C92.7051 37.582 94.2983 37.3715 95.0799 36.9507C94.9296 38.6041 96.102 38.9047 96.7633 39.7464C94.5989 39.3556 92.7051 38.7243 91.713 37.1611Z" fill="#BD382B"/>
<path d="M104.73 44.2559C105.511 44.4362 105 45.789 104.098 45.5485V45.3381C104.489 45.1276 104.489 44.5565 104.73 44.2559Z" fill="white"/>
<path d="M103.677 46.1797C104.519 46.9613 102.535 48.4042 102.204 49.3963C101.904 49.3662 102.024 48.8852 101.994 48.5245C102.655 47.8331 103.166 46.9913 103.677 46.1797Z" fill="white"/>
<path d="M105.992 47.6826C106.112 48.374 105.842 48.6746 105.782 49.1857C107.375 50.4182 108.698 51.9213 110.622 52.8532C109.99 53.274 108.968 53.3041 108.307 53.725C107.195 52.5526 105.902 51.5906 104.519 50.7188C104.158 51.1697 103.828 51.5906 103.046 51.5906C104.219 50.4483 104.549 48.4943 105.992 47.6826Z" fill="#BD382B"/>
<path d="M114.199 50.6888C113.297 50.4784 112.365 50.2679 111.674 49.817C111.463 49.2458 111.433 48.4943 111.463 47.6526C112.876 47.5624 113.538 48.2538 114.62 48.5244C114.65 49.1556 114.5 49.9372 114.83 50.2379C114.74 50.5385 114.56 50.6888 114.199 50.6888Z" fill="#B5121C"/>
<path d="M44.4566 73.0545C44.3063 70.6496 44.186 67.8839 42.3523 68.1244C40.9094 68.3048 40.7591 70.89 40.6689 73.0545C40.1879 73.7759 40.6087 75.4293 40.4584 76.4815V82.2833C40.6087 83.3655 40.1879 84.9888 40.6689 85.7103V86.1311C40.6989 86.7624 40.5486 87.544 40.8793 87.8447C41.1198 88.8667 41.3002 90.0091 42.1419 90.4299V90.6404C44.3664 90.49 44.3063 87.995 44.4566 85.7103C44.9376 84.9287 44.5167 83.2152 44.667 82.0428V76.4514C44.5468 75.3993 44.9376 73.7759 44.4566 73.0545ZM34.386 77.5637C35.0775 71.7919 36.9713 65.6594 42.3523 65.5391C48.1842 65.3888 50.3186 72.0324 50.7695 78.4354V81.2312C50.4388 84.1772 49.8376 86.8526 48.6652 88.9569C47.3726 90.941 45.9296 92.7446 43.194 93.2557C36.7308 92.8348 35.2278 87.3637 34.386 81.2312V77.5637Z" fill="#C41230"/>
<path d="M112.516 66.1705C116.514 65.3288 122.857 65.7196 127.216 65.9601C122.466 66.1104 117.145 65.6595 112.726 66.1705H112.516Z" fill="#EDBDB0"/>
<path d="M148.619 94.0976C150.904 93.8571 154.181 94.6087 155.774 93.6768C154.662 94.9694 150.423 94.2479 148.619 94.0976Z" fill="#F2DEBA"/>
<path d="M186.016 65.96C186.196 66.0501 186.376 66.1403 186.436 66.3808C186.587 67.7336 186.166 69.6575 186.647 70.6796V73.2649V74.9784C186.617 75.1587 186.436 75.1888 186.436 75.3992H184.122C183.4 72.3931 182.138 69.9581 179.492 68.936C179.071 68.6354 177.388 68.5452 176.967 68.936C176.787 68.906 176.757 69.0262 176.757 69.1465C176.276 72.5133 176.696 76.8121 176.546 80.5397C176.847 80.5698 177.147 80.5698 177.177 80.3293C179.101 79.7882 179.552 77.744 180.123 75.8201H182.438H182.649C182.498 80.0587 182.919 84.8385 182.438 88.7164H180.123C179.582 86.552 178.951 84.4778 176.757 83.9968C176.396 87.6643 176.396 92.8047 176.757 96.4722V96.8931C181.476 97.4342 183.13 92.9551 184.542 89.3778H186.647C186.827 89.3477 186.857 89.4679 186.857 89.5882V91.7526V93.917V95.8409C186.376 96.6225 186.797 98.336 186.647 99.5084V99.7189C180.815 100.2 174.141 99.809 167.949 99.9293C167.798 99.1477 167.588 98.306 167.949 97.5544C168.219 96.7428 169.752 97.2538 170.053 96.4722V76.4814C170.053 72.4833 170.865 68.6655 167.949 67.8839V65.96H186.016Z" fill="#C41230"/>
<path d="M127.636 70.469C127.757 69.5071 127.306 66.8617 128.057 67.2525C127.576 67.9739 127.997 69.6273 127.847 70.6795H127.636V70.469Z" fill="#F2DEBA"/>
<path d="M59.7879 68.7557C60.7198 68.3348 61.9523 68.2447 61.4713 66.3809C62.0726 66.4109 61.291 67.8539 61.8922 67.8839V68.3048C61.3812 68.6355 60.9904 69.1164 59.9983 68.9361C60.0284 68.7858 59.9081 68.7557 59.7879 68.7557Z" fill="#EDBDB0"/>
<path d="M164.191 68.5455C164.431 68.305 164.942 68.305 165.454 68.3351V66.4111C166.055 66.3811 165.273 67.7338 165.874 67.7038V68.3351C165.484 68.6357 165.033 68.9062 164.401 68.9664C164.341 68.786 164.191 68.7559 164.191 68.5455Z" fill="#EDBDB0"/>
<path d="M137.286 68.7556C137.436 68.1243 138.128 68.0342 138.97 68.1243C139.09 68.455 139.27 68.6654 139.39 68.9961C139.21 68.9661 139.18 69.0863 139.18 69.2066C139.03 68.5753 137.797 68.2145 137.496 68.9961C137.527 68.7857 137.436 68.7556 137.286 68.7556Z" fill="#FAF0E8"/>
<path d="M21.5799 79.4878C21.8204 77.5639 21.8204 74.678 22.2112 72.3934C22.5118 70.4995 23.0529 67.5835 25.1572 68.7259C25.1572 69.5075 24.105 69.6878 23.6842 70.4394C22.5719 72.4234 22.7222 75.9105 22.4216 78.8265C22.0609 81.3216 22.0609 85.3498 22.4216 87.8449C22.0308 89.5584 23.6241 96.4124 22.632 94.0676C22.4216 93.5866 22.5118 92.775 22.2112 92.3541C22.0909 89.7087 21.5799 87.394 21.5799 84.6283V79.4878Z" fill="#D69E0F"/>
<path d="M137.496 68.9659C137.797 68.1843 139.03 68.5451 139.18 69.1764C135.993 73.0844 137.436 83.5156 137.707 89.588C136.745 88.4457 137.015 86.0107 136.655 84.2071V82.704V76.0304V74.5273C136.925 72.6635 136.895 70.4991 137.496 68.9659Z" fill="#D69E0F"/>
<path d="M77.2235 68.9663C77.7947 68.9663 78.426 68.8761 78.6965 69.1767C79.3579 69.8381 78.0051 69.3872 78.0652 70.0485C77.4339 76.151 78.2756 83.7264 77.6444 89.8289C76.6824 83.7264 77.4941 75.7602 77.2235 68.9663Z" fill="#D69E0F"/>
<path d="M78.0652 70.0485C77.7946 76.5718 78.6063 84.2374 77.6443 90.0393C76.502 88.927 77.013 86.7927 77.013 85.1092C77.013 80.1491 77.1934 73.9565 76.8026 69.2068C76.7725 68.9062 76.7725 68.6055 77.013 68.5454C76.983 68.7859 77.0431 68.9362 77.2235 68.9663C77.494 75.7601 76.6823 83.7264 77.6443 89.8289C78.2756 83.7264 77.4339 76.1209 78.0652 70.0485Z" fill="#F2DEBA"/>
<path d="M179.101 69.1768C179.582 69.5375 180.274 69.6878 180.785 70.0485C180.304 70.6798 177.899 69.2068 177.839 70.7099C177.358 73.2952 177.779 76.8123 177.628 79.7283H177.418C176.937 76.662 177.358 72.6338 177.208 69.2068H177.418H179.101V69.1768Z" fill="#D69E0F"/>
<path d="M146.755 76.9023C146.936 74.8581 146.214 73.7157 145.914 72.1826C146.966 73.836 147.206 76.301 147.597 78.6458V82.5237C147.236 89.3476 143.178 97.0433 136.054 93.4961C136.234 92.9249 136.715 93.7967 137.316 93.4961C137.617 93.8568 139.33 93.8568 139.631 93.4961C143.539 92.3538 145.192 88.8667 146.365 84.8986C146.665 84.3274 146.605 83.4256 146.785 82.7342V82.3133C147.086 80.9906 147.086 78.1949 146.755 76.9023Z" fill="#D69E0F"/>
<path d="M86.8731 76.9023C86.9934 75.0686 86.2719 74.0765 86.0314 72.6035C87.1136 74.287 87.3541 76.8422 87.7149 79.2771V82.0728C87.1738 88.8366 84.6185 93.5262 78.0652 94.0974H70.7302C70.7001 93.917 70.5198 93.887 70.5198 93.6765C72.1431 92.5342 76.1112 93.8268 78.0952 93.0452C79.5983 92.9551 80.7406 92.444 81.6725 91.7526C83.3259 90.9409 84.4382 89.5882 85.2498 87.8747C86.1817 86.3115 86.8732 84.5078 86.9333 82.0728C87.2339 80.8403 87.2339 78.1348 86.8731 76.9023Z" fill="#D69E0F"/>
<path d="M48.8756 89.1676C51.3106 85.921 51.7014 79.037 50.7695 73.686C51.4308 75.0388 51.7014 76.7222 51.8216 78.6161V83.3357C51.3106 89.7388 47.1321 96.9836 40.2781 93.4363C40.8492 93.1959 43.0137 94.1578 44.0658 93.4363C46.3505 92.7449 47.7634 91.1216 48.8756 89.1676Z" fill="#D69E0F"/>
<path d="M153.459 89.588C153.279 90.1592 152.617 89.4978 152.828 88.9567C152.978 85.2291 152.557 80.9303 153.038 77.5635C152.978 77.9242 153.249 77.9242 153.249 78.2248C153.399 81.9224 152.978 86.2211 153.459 89.588Z" fill="#D69E0F"/>
<path d="M66.9425 83.3657C66.4916 83.9068 66.2811 84.6884 65.6799 85.0792C65.6799 84.959 65.6499 84.8387 65.4695 84.8688C65.71 84.1173 66.3112 83.7265 66.7321 83.1553C66.9124 83.0952 66.9124 83.2455 66.9425 83.3657Z" fill="#FAF0E8"/>
<path d="M101.994 85.0788C101.964 84.688 102.265 84.6279 102.204 84.207C104.128 87.5438 99.8597 88.0549 99.4689 90.4297C99.1983 90.3396 99.048 90.1592 99.048 89.7984C98.7173 86.8825 101.663 87.3033 101.994 85.0788Z" fill="#D69E0F"/>
<path d="M98.6572 89.7987C98.2063 89.7687 98.567 88.8969 98.4468 88.5061C99.2584 87.1233 101.002 86.6724 101.603 85.0791H102.024C101.693 87.3036 98.7474 86.8828 99.0781 89.7987H98.6572Z" fill="#FAF0E8"/>
<path d="M42.1419 90.4598C41.3002 90.0389 41.1499 88.8966 40.8793 87.8745H41.3002C41.6008 88.3555 41.691 90.1892 42.1419 89.7984C42.4726 89.8586 42.2922 90.2794 42.1419 90.4598Z" fill="#FAF0E8"/>
<path d="M85.2198 87.8748C84.4382 89.5582 83.3259 90.941 81.6425 91.7527C81.4621 91.7827 81.4321 91.6625 81.4321 91.5423C82.9051 90.5502 84.1075 89.2576 85.0094 87.6643C85.1897 87.6343 85.1897 87.7545 85.2198 87.8748Z" fill="#FAF0E8"/>
<path d="M32.4922 89.5883C32.8229 89.5282 32.8529 89.7987 33.1235 89.7987C34.6265 99.1779 27.2916 104.288 19.8965 100.531C20.4977 99.9294 21.1891 101.072 22.2112 100.741C22.7223 101.102 24.6462 101.102 25.1572 100.741C26.0891 100.771 26.8106 100.561 27.2615 100.11C28.4339 99.9595 29.0652 99.238 29.7867 98.6067C31.1996 97.1036 32.1916 95.2098 32.3118 92.384C32.7627 91.873 32.3419 90.4601 32.4922 89.5883Z" fill="#D69E0F"/>
<path d="M48.8756 89.1675C47.7934 91.1215 46.3505 92.7448 44.0357 93.4662C43.9756 93.1656 43.5247 93.2859 43.194 93.2558C45.8996 92.7448 47.3726 90.9411 48.6652 88.957C48.8456 88.8969 48.8456 89.0472 48.8756 89.1675Z" fill="#FAF0E8"/>
<path d="M109.569 90.6707C109.75 90.6406 109.78 90.7609 109.78 90.8811C109.088 91.7228 108.427 92.6547 107.255 93.0455H106.834C107.766 92.2639 108.848 91.6327 109.569 90.6707Z" fill="#FAF0E8"/>
<path d="M152.197 99.0575C152.467 98.2458 149.581 98.5464 150.513 99.0575C150.964 100.32 151.806 101.162 152.197 102.484V105.07H154.09V102.484C154.481 100.951 155.563 100.11 155.984 98.6065H154.301C153.94 99.5384 153.549 100.44 153.038 101.192C152.978 100.26 152.347 99.8992 152.197 99.0575ZM135.813 98.6366C135.452 100.29 135.452 103.446 135.813 105.07C137.707 105.641 137.647 104.198 137.496 102.695H138.549C139.21 102.605 139.21 103.146 139.18 103.777C138.278 105.4 141.465 105.37 140.863 104.649C140.473 103.837 140.863 102.214 140.022 101.853C141.044 101.823 140.833 100.561 140.863 99.4783C140.232 99.2679 140.022 98.6366 138.97 98.847C138.338 98.336 136.805 98.7569 135.813 98.6366ZM121.113 98.847V104.859C122.316 105.37 124.39 104.919 125.953 105.07V103.567C124.961 103.416 123.428 103.837 122.796 103.356V102.484C123.638 102.334 125.021 102.755 125.532 102.274V101.192C125.021 100.711 123.638 101.102 122.796 100.981C122.376 99.2078 125.201 100.711 125.743 99.8992V98.817C124.69 98.4863 122.165 98.4863 121.113 98.847ZM106.623 98.847C102.776 96.7127 104.82 102.875 104.309 105.07H105.992C106.143 104.078 105.722 102.484 106.203 101.853C106.323 102.935 106.894 103.567 106.834 104.859H108.517C108.577 103.777 108.878 102.935 109.149 102.064C109.63 102.635 109.209 104.138 109.359 105.07C109.87 104.949 110.892 105.34 111.043 104.859V98.847C110.772 98.5765 108.668 98.2759 108.728 99.0575C108.487 100.561 108.006 101.763 107.676 103.146C107.345 101.673 106.894 100.35 106.623 98.847ZM92.7652 98.847C92.6149 98.5464 90.721 98.3059 90.8713 99.0575C90.3302 101.102 89.4585 102.755 88.9775 104.859H90.4505C90.4505 104.559 90.5407 104.378 90.6609 104.228C91.0517 103.837 92.0437 104.078 92.7652 104.018C93.156 104.048 92.8854 104.739 93.1861 104.889H94.6591C94.2081 102.665 93.2762 100.981 92.7652 98.847ZM74.6983 98.847V104.859C75.9008 105.37 77.975 104.919 79.5382 105.07V103.567H76.3818V102.484C77.2235 102.334 78.6063 102.755 79.1174 102.274V101.192C78.6063 100.711 77.2235 101.102 76.3818 100.981V100.14C77.2836 99.9894 78.7566 100.41 79.3278 99.9292V98.847C78.2756 98.4863 75.7505 98.4863 74.6983 98.847ZM59.5775 98.847V104.859C61.0204 105.881 61.6216 104.258 61.2609 102.695H62.5235C63.3051 102.845 63.1548 103.897 63.1548 104.859C63.6658 104.739 64.6879 105.13 64.8382 104.649C63.7259 102.665 64.5677 101.853 64.6278 99.4783C64.1167 99.1476 63.6358 98.7569 62.7339 98.847C62.1628 98.4863 60.1486 98.4863 59.5775 98.847ZM45.9296 105.07C48.1241 105.25 49.567 104.649 49.7174 102.695C48.0339 102.184 48.3345 103.717 47.1922 103.777C45.0578 104.078 45.3284 99.9593 46.9818 99.8992C48.1241 99.9593 48.1542 101.132 49.7174 100.771C47.2523 94.5483 40.8493 103.176 45.9296 105.07ZM160.403 96.6826C165.965 96.9832 166.025 106.483 160.614 106.994H39.4063C34.1456 106.573 34.2358 96.863 39.6167 96.6826H160.403Z" fill="white"/>
<path d="M90.6609 104.198C90.5406 103.417 92.5547 103.717 92.7652 103.988C92.0437 104.048 91.0517 103.838 90.6609 104.198Z" fill="#EDBDB0"/>
<path d="M106.203 101.853C105.722 102.515 106.142 104.078 105.992 105.07H104.309C104.82 102.876 102.776 96.713 106.623 98.8473H104.519V104.86H105.571C106.052 103.868 105.631 101.914 105.782 100.561C106.082 100.831 106.173 101.282 106.203 101.853Z" fill="#DE8A7D"/>
<path d="M122.796 101.192C122.316 101.102 122.646 100.05 122.796 99.8994H125.743C125.201 100.711 122.376 99.1779 122.796 100.982V101.192Z" fill="#D1544F"/>
<path d="M62.5235 102.695H61.2609C61.6517 104.228 61.0204 105.882 59.5775 104.86H61.0505V102.485C61.5014 102.635 62.4333 102.214 62.5235 102.695Z" fill="#DE8A7D"/>
<path d="M140.863 104.649C141.465 105.401 138.278 105.401 139.18 103.777C139.631 103.747 139.27 104.529 139.39 104.859C139.841 104.739 140.773 105.13 140.863 104.649Z" fill="#DE8A7D"/>
<path d="M138.549 102.695H137.496C137.647 104.198 137.707 105.611 135.813 105.07V104.859H137.286V102.484C137.677 102.605 138.519 102.244 138.549 102.695Z" fill="#DE8A7D"/>
<path d="M29.7566 98.6367C29.0652 99.268 28.4339 99.9895 27.2314 100.14C27.0511 100.17 27.021 100.05 27.021 99.9294C27.7124 99.5686 28.3738 99.1478 29.1253 98.8472C29.456 98.9073 29.486 98.6367 29.7566 98.6367Z" fill="#FAF0E8"/>
<path d="M61.2609 101.432C60.7799 101.342 61.1707 100.38 61.0505 99.9294C61.5615 100.05 62.5836 99.6589 62.7339 100.14H61.2609V101.432Z" fill="#D9756B"/>
<path d="M137.496 101.432C136.474 100.44 138.128 99.2379 138.97 100.14H137.496V101.432Z" fill="#D9756B"/>
<path d="M192.539 106.994C193.14 106.994 193.05 105.791 192.749 105.491C192.689 104.709 191.156 104.619 190.855 105.28C190.555 105.581 190.555 106.693 190.855 106.994C190.855 107.655 192.539 107.655 192.539 106.994ZM193.381 106.783C189.653 110.992 189.382 101.463 193.381 105.491V106.783Z" fill="#DBA614"/>
<path d="M191.276 106.994V105.28H192.328C192.389 105.461 192.328 105.701 192.539 105.701C192.358 106.092 191.877 106.332 192.328 106.783C192.118 107.445 191.757 106.543 191.697 106.362C191.336 106.362 191.577 106.964 191.276 106.994Z" fill="#D69E0F"/>
<path d="M100.551 13.503C100.972 13.1422 102.866 13.1422 103.287 13.503H100.551Z" fill="#BA4F1C"/>
<path d="M107.044 36.0791C107.225 36.6804 106.744 36.6202 106.834 37.1613C107.826 37.5221 108.006 35.8988 107.044 36.0791ZM110.411 29.1951C110.351 29.7663 110.712 29.8865 111.253 29.8264C111.313 29.2853 110.952 29.135 110.411 29.1951ZM102.415 36.5H102.836C104.038 36.8307 103.798 38.6945 104.309 39.7166C105.511 38.6644 106.203 37.0712 106.834 35.4178C109.058 36.8607 112.215 36.8607 111.884 33.0429C111.253 31.9908 109.63 31.9006 108.728 31.119C108.608 30.3074 108.217 29.7663 108.307 28.7442C109.539 27.5417 112.335 28.0828 111.884 30.4577C110.772 31.0589 110.081 30.0368 109.569 29.3755C108.367 30.4877 110.772 31.1791 111.674 31.5399C114.74 29.4055 111.073 25.1368 108.096 25.1067C107.255 26.6699 107.315 28.654 105.571 29.1951C102.806 30.0669 98.4167 27.3914 98.6271 25.1067C98.9578 21.9804 105.962 23.3331 104.309 27.0307C103.196 27.0908 102.325 26.9104 102.204 25.9485C102.174 24.9865 102.836 26.0386 103.467 25.738C103.257 23.3932 99.4989 23.9644 99.4688 25.738C99.4388 27.0908 102.715 28.4736 104.519 28.1129C106.894 27.6319 107.195 24.7761 106.623 21.8902C105.992 21.289 105.962 22.6417 105.15 22.5515C105 21.5896 105.842 21.6798 105.992 21.0485C102.956 17.3509 95.9216 19.6656 95.7112 24.4755C95.9517 25.3773 97.3646 25.0767 97.3946 26.189C96.7333 26.3092 96.6431 25.7982 95.9216 25.9785C95.8615 27.7521 96.4928 28.8344 97.1842 29.8564C97.5149 29.5558 97.3946 28.8043 97.8155 28.5638C100.281 28.1129 102.355 28.6239 102.234 31.3595C101.543 31.6601 99.4989 31.8104 99.4989 30.7282C99.7995 29.5258 100.942 31.6 101.603 30.7282C101.784 28.9546 98.4167 29.135 97.8155 30.0669C97.605 30.8785 98.3265 30.6681 98.2363 31.3595C96.0719 30.7282 95.6811 28.2331 95.2903 25.7681C94.5087 25.738 94.0879 26.0988 93.8173 26.6399C93.8173 28.2331 95.0198 28.5638 94.659 30.5178C93.156 31.7804 90.4805 31.8405 90.6609 34.8166C92.2842 37.492 98.4768 33.8245 94.659 32.2313C94.2382 32.2914 94.2382 32.8025 93.8173 32.8926C93.7572 33.7344 95.0799 33.1632 95.0799 33.9748C93.4265 36.5601 92.0437 31.9607 94.0277 31.3896C95.6511 30.9386 96.9136 33.2534 96.7633 34.3957C96.4627 36.7705 92.0437 37.7626 90.24 35.6883C88.9173 31.7503 91.9234 30.5779 93.8173 29.2252C93.8173 27.8724 92.8253 27.5117 93.186 25.7982C93.7572 25.3773 94.2081 24.8362 95.2903 24.9264C94.7492 18.7337 104.038 16.2988 106.834 21.0485C108.427 20.7779 109.028 21.5294 109.78 22.1307C109.75 22.792 109.93 23.7239 109.569 24.0546C109.058 24.0847 108.547 24.0847 108.307 23.8442C108.006 22.9724 108.668 23.0926 108.938 22.762C108.818 21.8601 107.976 21.7399 107.255 21.4693C107.014 22.0104 107.856 23.3031 107.676 24.4755C111.433 24.5055 114.139 27.3613 113.568 31.1491C113.447 31.8705 112.726 32.111 112.515 32.8626C112.034 34.546 112.936 37.2515 111.042 37.7926C109.84 38.0331 109.449 37.4319 108.517 37.3718C108.187 37.6123 107.646 37.6423 107.465 38.0331H106.623H106.413C106.293 39.2957 105.661 39.9871 104.94 40.6184C104.429 40.5883 104.279 40.9491 103.888 41.0393H103.677C103.377 40.6485 103.677 39.6264 103.257 39.3258C103.136 38.935 103.497 38.0632 103.046 38.0331C103.136 37.2215 102.204 37.462 102.415 36.5Z" fill="#C41230"/>
<path d="M109.359 20.3873C109.93 20.0265 111.944 20.0265 112.516 20.3873H109.359Z" fill="#B81C1C"/>
<path d="M102.204 22.311C101.723 22.792 100.341 22.9724 99.8897 22.311V21.0184C100.701 20.1165 102.655 20.6576 102.204 22.311Z" fill="#D69E0F"/>
<path d="M112.515 20.3872C115.702 21.2289 118.558 22.3713 118.408 26.6099C117.716 27.1209 117.055 27.6621 115.882 27.6921V26.8203C119.58 24.4154 112.425 21.5897 111.253 24.686C110.862 24.6559 110.562 24.5357 110.411 24.2651C111.042 22.5216 109.96 20.9283 108.517 20.5976C108.577 20.297 109.028 20.4173 109.359 20.3872H112.515Z" fill="#B5121C"/>
<path d="M92.3444 28.5636C92.4045 27.9924 92.2842 27.6317 91.7131 27.6918C91.7131 27.9623 91.4425 27.9924 91.5026 28.3531C91.8032 28.4133 91.9235 28.6538 92.3444 28.5636ZM93.1861 29.1949C92.3143 29.2249 91.4425 29.255 91.0818 28.774C90.6609 26.2188 93.8775 26.8501 93.1861 29.1949Z" fill="#D69E0F"/>
<path d="M111.253 29.8263C110.712 29.8864 110.351 29.7361 110.411 29.195C110.952 29.1349 111.313 29.2852 111.253 29.8263Z" fill="white"/>
<path d="M104.309 31.1191C104.279 30.578 104.279 30.0971 104.519 29.8265C105.03 29.7964 105.541 29.7964 105.571 30.2474C105.391 30.8185 104.94 31.059 104.309 31.1191Z" fill="#D69E0F"/>
<path d="M119.009 31.9905C118.197 31.8703 117.656 32.0506 117.325 32.4114C117.205 33.4635 117.536 34.0648 118.588 33.9145C118.798 33.3433 119.039 32.8022 119.009 31.9905ZM114.199 29.4052C118.888 28.0525 120.782 30.0365 120.512 35.2071C119.82 37.6721 115.221 36.0789 113.778 37.7924C114.229 39.596 114.409 40.4979 114.199 42.7224V44.8868C114.349 45.5482 113.988 45.6684 113.988 46.1795C112.185 45.2175 111.824 42.8126 109.359 42.512C109.359 42.3917 109.329 42.2414 109.149 42.3016C110.201 41.4599 109.87 39.3856 109.78 38.4237H111.253C111.884 37.9727 112.335 37.4016 112.726 36.7102C116.243 37.2813 116.303 32.4715 114.199 31.3292V29.4052Z" fill="#B5121C"/>
<path d="M114.199 31.3594C116.303 32.5017 116.243 37.2815 112.726 36.7404C112.966 35.7784 113.267 34.8465 113.147 33.5238C113.267 36.2894 114.74 33.8244 113.568 32.652C113.868 32.2913 113.838 31.6299 114.199 31.3594Z" fill="#BD382B"/>
<path d="M118.588 33.9146C117.536 34.0649 117.205 33.4637 117.325 32.4116C117.656 32.0508 118.197 31.8705 119.009 31.9907C119.039 32.8024 118.798 33.3435 118.588 33.9146Z" fill="#BD382B"/>
<path d="M101.573 34.9967V34.3654H100.731C100.671 34.9065 101.032 35.0568 101.573 34.9967ZM98.6572 37.3715C100.792 36.8905 98.7173 34.5758 99.2885 33.2832C100.822 33.4936 102.385 33.704 102.655 35.2071C103.647 35.4476 103.527 34.5157 103.497 33.704C102.776 33.4335 101.994 33.223 102.024 32.201C104.339 31.8703 107.405 30.8181 108.968 32.6218C109.028 33.4034 108.938 34.0347 108.758 34.5457C107.736 35.2973 105.722 35.0868 106.022 33.2531C106.894 33.1629 107.104 33.704 107.495 34.1249C107.856 33.9145 108.217 33.7341 108.127 33.0427C107.826 31.6599 104.549 31.9905 103.918 32.8322C104.7 33.7641 104.339 35.7482 103.497 36.2592H102.235C101.182 36.4095 100.731 35.9286 100.341 35.3875C100.852 36.8003 100.1 37.9427 99.4989 38.8145C98.8977 38.6341 98.9578 39.1151 98.4468 39.0249C96.2824 39.4157 95.2903 37.5819 95.7112 36.0187C96.613 36.0789 96.5229 37.2212 96.9738 37.7322H98.0259C98.1762 37.612 98.5971 37.6721 98.6572 37.3715Z" fill="#C41230"/>
<path d="M100.762 34.3657H101.603V34.997C101.032 35.0571 100.671 34.9068 100.762 34.3657Z" fill="white"/>
<path d="M122.796 33.7041C122.646 34.5759 123.067 35.9888 122.586 36.4998C122.736 35.628 122.315 34.2151 122.796 33.7041Z" fill="#BA4F1C"/>
<path d="M81.2217 32.6221V36.0491C80.8609 35.4178 80.8609 33.2834 81.2217 32.6221Z" fill="#EBC785"/>
<path d="M98.0259 37.7927C97.8455 37.5522 97.7554 37.2215 97.8155 36.7104C98.086 36.9209 98.5971 36.9209 98.6572 37.3417C98.5971 37.6724 98.1762 37.6123 98.0259 37.7927Z" fill="#D69E0F"/>
<path d="M109.78 38.4238C109.87 39.3858 110.201 41.46 109.149 42.3017C109.028 42.0011 108.337 42.2717 108.307 41.8809C108.848 40.8588 108.577 38.995 109.359 38.2134C109.509 38.2735 109.78 38.2434 109.78 38.4238Z" fill="#BD382B"/>
<path d="M86.0315 40.7985C85.5204 40.7083 85.5806 41.1893 84.9793 41.0089C84.6787 40.7384 84.7689 40.077 84.7689 39.5059C85.4603 39.6862 86.1217 39.8666 86.0315 40.7985Z" fill="#B5121C"/>
<path d="M115.672 39.9569C114.71 40.1073 115.131 38.7846 115.041 38.033C116.183 37.6422 116.484 39.6563 115.672 39.9569Z" fill="#B5121C"/>
<path d="M103.257 39.2954C103.677 39.596 103.377 40.6181 103.677 41.0089H103.888C104.068 41.6101 103.587 41.55 103.677 42.0911C102.806 42.0611 102.415 41.5199 102.204 40.7985C102.114 39.9868 102.956 40.1371 103.257 39.7163V39.2954Z" fill="#FFC426"/>
<path d="M104.73 44.2556C104.369 44.0752 104.128 43.7446 103.677 43.6243C103.677 43.9851 103.527 44.1654 103.257 44.2556C103.257 44.8869 103.738 45.0673 104.098 45.3378V45.5482C105 45.7587 105.511 44.4059 104.73 44.2556ZM105.992 42.3016V42.0912C105.241 42.1513 105.211 41.4599 104.519 41.4599C104.669 42.2716 104.158 42.3918 104.309 43.1734C104.609 43.2936 104.85 43.5041 105.15 43.5943V43.8047C106.052 43.8648 106.082 43.0231 106.203 42.3016H105.992ZM103.888 41.009C104.279 40.9188 104.429 40.5581 104.94 40.5881C105.12 41.0691 105.662 41.1292 105.992 41.4599C107.255 41.9409 107.285 39.3255 107.465 38.0329C107.646 37.6421 108.187 37.6421 108.517 37.4016C108.638 39.3256 108.006 40.4679 107.676 41.9108C107.495 42.9329 108.938 42.3317 108.938 43.2035C108.247 43.3237 107.976 43.0532 107.465 42.993C106.984 43.2335 107.104 44.0452 106.623 44.2857C106.744 45.0071 107.976 44.6163 107.886 45.5783C107.225 45.6084 106.894 45.3078 106.413 45.1575C106.173 45.428 105.451 46.2998 105.992 46.6605C103.677 48.2538 103.437 51.9213 100.521 52.8832C100.401 51.5305 101.212 51.1397 101.573 50.2979C101.453 45.6084 99.6793 42.6323 98.4167 39.1151C98.9278 39.2053 98.8676 38.7243 99.4689 38.9047C100.491 41.9409 101.964 44.5262 101.994 48.5844C102.024 48.9151 101.904 49.3961 102.204 49.4562C102.505 48.4341 104.519 47.0213 103.677 46.2397V46.0292C103.617 45.5783 103.106 45.6084 103.046 45.1575C102.415 45.0071 102.655 45.7587 101.994 45.5783C102.535 44.6464 101.754 44.2255 101.573 43.4139C102.114 43.5041 102.204 44.0452 102.836 44.0452C103.617 42.6624 101.573 41.49 101.152 41.8808C101.483 40.3176 100.16 40.4679 100.311 39.0851C100.942 39.2955 100.972 40.1372 101.784 40.1673C101.603 39.566 102.084 39.5961 101.994 39.0851C101.844 38.3936 100.281 37.9728 100.942 37.1611C101.573 37.4317 101.513 38.4538 102.415 38.4538C102.625 38.3035 102.625 37.9728 103.046 38.0329C103.527 38.063 103.136 38.9348 103.257 39.3255V39.7464C102.956 40.1372 102.114 39.9869 102.204 40.8286C102.415 41.5501 102.776 42.0912 103.677 42.1213C103.587 41.5802 104.068 41.6102 103.888 41.009Z" fill="#D69E0F"/>
<path d="M99.4989 43.5942C98.8676 42.993 99.0781 44.5862 98.0259 44.2255C97.2143 43.8046 96.8235 40.7684 98.6572 41.2194C98.9879 41.9709 99.2284 42.7826 99.4989 43.5942Z" fill="#BD382B"/>
<path d="M106.624 38.0032C106.684 39.4161 106.263 40.348 105.992 41.4302C105.692 41.0995 105.12 41.0394 104.94 40.5584C105.662 39.9271 106.293 39.2357 106.413 37.9731H106.624V38.0032Z" fill="#FFC426"/>
<path d="M107.465 38.0029C107.285 39.3256 107.255 41.941 105.992 41.4299C106.263 40.3477 106.684 39.4158 106.623 38.0029H107.465Z" fill="white"/>
<path d="M117.957 47.2616C116.874 47.442 116.423 46.961 115.431 47.0512C115.101 45.6383 116.123 45.6083 116.273 44.6764C116.123 43.4439 115.371 42.9028 115.431 41.4598C118.017 40.0469 118.077 44.3156 118.798 46.1794C118.558 46.5702 118.257 46.9009 117.957 47.2616Z" fill="#B5121C"/>
<path d="M105.15 43.5944C105.331 43.0533 105.331 42.3619 105.992 42.3018H106.203C106.082 43.0232 106.052 43.8649 105.15 43.8048V43.5944Z" fill="white"/>
<path d="M114.199 44.8871V42.7227C114.53 42.9631 114.53 44.6466 114.199 44.8871Z" fill="#B81C1C"/>
<path d="M108.307 45.7589C109.119 44.7067 107.465 44.7067 107.465 43.835H108.728C109.479 44.2859 110.501 44.4662 111.042 45.1276C110.622 45.0374 110.02 45.338 109.99 46.2098C109.269 46.1797 108.517 46.2399 108.307 45.7589Z" fill="#B5121C"/>
<path d="M111.043 45.3081C111.523 45.3682 111.523 45.9695 111.884 46.1799C111.493 46.8112 110.772 46.0596 111.043 45.3081Z" fill="#B5121C"/>
<path d="M106.413 46.1797C107.585 46.5705 108.668 47.0515 109.99 47.2619C110.201 47.8331 110.231 48.5846 110.201 49.4263C108.908 49.6067 108.577 48.795 107.465 48.795C107.345 50.6288 109.479 50.1778 110.411 50.9594C110.862 51.2901 110.291 52.6729 111.253 52.4625C111.103 52.6729 110.862 52.7932 110.622 52.8834C108.698 51.9815 107.405 50.4484 105.782 49.2159C105.842 48.7048 106.112 48.4042 105.992 47.7128C106.052 47.4122 106.443 47.4723 106.623 47.292C106.684 46.7509 106.593 46.4202 106.413 46.1797Z" fill="#B5121C"/>
<path d="M100.13 51.3504C98.9278 50.8694 97.9057 50.178 97.8155 48.5546C99.3486 48.3442 99.7995 49.2461 100.762 49.6369V48.1338C101.333 49.1559 100.822 50.8994 100.13 51.3504Z" fill="#BD382B"/>
<path d="M116.935 48.314C116.754 48.7048 116.454 48.9753 116.093 49.1857H115.882V48.314H116.935Z" fill="#B5121C"/>
<path d="M111.884 52.1919C111.644 52.1618 111.704 51.8011 111.674 51.5606C111.974 51.6809 112.756 51.3201 112.726 51.771C112.305 51.771 112.455 52.3422 111.884 52.1919Z" fill="#B5121C"/>
<path d="M101.784 55.8594H104.309C103.948 56.2201 102.144 56.2201 101.784 55.8594Z" fill="#E3BF6B"/>
<path d="M139.39 68.9661C139.27 68.6354 139.09 68.425 138.969 68.0943C138.128 68.0342 137.436 68.0943 137.286 68.7256C136.625 69.5673 136.414 70.8299 136.444 72.3931C135.963 72.7538 136.354 74.0464 136.234 74.7679V76.271C135.873 77.9244 135.873 81.0808 136.234 82.7041V83.9967C136.354 84.7182 135.963 85.9808 136.444 86.3716C136.565 88.4458 136.925 90.7004 138.338 90.6704C140.082 90.6403 140.022 87.1832 140.232 84.8685C140.593 81.8023 140.593 77.2029 140.232 74.1366C140.322 72.0323 140.082 70.2587 139.39 68.9661ZM146.124 84.2372C144.741 88.6262 142.637 94.3679 136.895 93.0452C132.356 91.9931 130.131 85.6802 129.951 80.3593C129.771 74.5875 131.845 67.1624 136.264 65.7495C142.968 63.5851 146.184 71.5814 146.545 78.4354V80.1489V81.2311C146.184 82.0127 146.274 83.2452 146.124 84.2372Z" fill="#C41230"/>
<path d="M61.2609 65.9602C61.291 66.1406 61.4713 66.1707 61.4713 66.3811C61.9523 68.2449 60.7198 68.3351 59.7879 68.7559C59.6075 68.7259 59.5775 68.8461 59.5775 68.9664H59.367C59.5173 75.9105 59.0965 83.4559 59.5775 90.0394C59.7578 90.4302 59.9683 90.7909 60.6296 90.7007C60.8701 91.0615 62.4934 91.0615 62.7339 90.7007C65.4996 90.3099 63.0646 88.4461 62.313 86.402C60.84 82.3437 61.8621 76.0608 66.9425 78.8866C67.6339 80.059 67.3934 82.1934 66.7321 83.1854C66.3112 83.7566 65.74 84.1774 65.4695 84.8989C65.1989 85.2897 65.0787 86.913 65.4695 87.2737C65.6499 89.2277 66.8222 90.1897 66.7321 92.4443C66.1008 92.8651 65.1088 92.9253 63.9965 92.8651C62.1026 92.5044 58.7357 92.5044 56.8719 92.8651C55.3088 92.7449 53.2646 93.1357 52.0321 92.6547C51.491 90.5805 52.8738 90.5204 53.7155 89.859V89.4381C54.0762 83.2155 54.0762 75.4596 53.7155 69.2369C53.2646 68.0946 51.3407 68.5155 52.0321 66.2308C54.6775 65.6596 58.2548 66.0805 61.2609 65.9602Z" fill="#C41230"/>
<path d="M77.013 68.5452C76.7725 68.5753 76.7725 68.8759 76.8026 69.1765V90.2495C80.5302 90.4299 80.2597 86.4919 80.3799 82.9446C80.7406 80.8704 80.7406 77.2931 80.3799 75.2189C80.41 71.9422 80.0492 67.944 77.013 68.5452ZM77.2235 65.96C86.7529 66.1103 88.3161 79.5477 85.0093 87.6643C84.1075 89.2575 82.905 90.5201 81.432 91.5422C78.7265 93.2857 73.7965 92.7446 69.4676 92.8348C69.5578 91.6324 68.9866 89.7686 70.7302 90.2495C70.9106 90.2195 70.9406 90.0391 71.1511 90.0391C71.0008 83.0348 71.4216 75.4293 70.9406 68.7557C70.129 68.3649 69.0468 68.2446 69.2572 66.8317C69.5578 66.8017 69.4376 66.3207 69.4676 65.96H77.2235Z" fill="#C41230"/>
<path d="M69.2572 66.8018C68.9266 64.7276 75.7505 65.9902 77.2235 65.9301H69.4677C69.4376 66.2908 69.5578 66.7718 69.2572 66.8018Z" fill="#EDBDB0"/>
<path d="M153.88 65.9601C156.826 69.2368 157.818 74.5276 159.982 78.646C160.103 78.8264 160.193 79.0067 160.193 79.2773C160.554 76.4816 160.554 72.1828 160.193 69.3871C160.223 68.2748 158.84 68.6055 158.299 68.0944C158.028 67.4632 158.028 66.5613 158.299 65.93H165.243C165.273 66.1104 165.454 66.1405 165.454 66.3509V68.2748C164.942 68.2448 164.431 68.2448 164.191 68.4852C163.62 68.3349 163.77 68.9061 163.349 68.9061V69.5374C162.868 76.8423 163.289 85.0791 163.139 92.7448V92.9552C162.568 93.376 161.305 93.0754 160.403 93.1656C157.517 87.6043 155.293 81.3515 152.617 75.5497C152.497 75.3693 152.407 75.1889 152.407 74.8883C151.926 77.7441 152.347 81.5619 152.196 84.7785C152.347 86.0711 151.926 87.9349 152.407 88.8668C152.257 90.3098 153.7 90.1294 154.511 90.5803V92.7147C152.136 92.5944 149.19 92.9852 147.176 92.5043V90.7908C147.808 90.1595 149.22 90.2797 149.491 89.2877V68.876C149.16 68.1245 147.747 68.5153 147.176 68.0043C147.236 67.2828 147.026 66.2607 147.387 65.8398H153.88V65.9601Z" fill="#C41230"/>
<path d="M109.78 71.5517C110.05 70.259 109.149 66.6216 110.411 67.0425C109.449 67.7339 110.261 70.1689 109.99 71.5517H109.78Z" fill="#EBC785"/>
<path d="M186.647 70.6796C186.166 69.6876 186.587 67.7336 186.436 66.3809C186.917 67.4029 186.527 69.3269 186.647 70.6796Z" fill="#D1544F"/>
<path d="M186.857 70.8901C187.008 69.7478 186.587 68.0343 187.068 67.2227V70.8901H186.857Z" fill="#EBC785"/>
<path d="M112.726 66.1704H112.516V68.7557H112.726V66.1704Z" fill="#DE8A7D"/>
<path d="M179.101 69.1767H177.418C177.418 68.9663 177.147 68.9963 176.997 68.9663C177.418 68.5454 179.071 68.6656 179.522 68.9663C179.492 69.1767 179.252 69.1166 179.101 69.1767Z" fill="#F2DEBA"/>
<path d="M136.444 72.3936C136.384 70.8304 136.625 69.5678 137.286 68.7261C137.406 68.7261 137.526 68.7561 137.496 68.9365C136.895 70.4696 136.925 72.634 136.655 74.5279C136.174 74.2574 136.595 73.0549 136.444 72.3936Z" fill="white"/>
<path d="M165.844 67.6738V67.4634C165.814 67.283 165.934 67.2529 166.055 67.2529C166.926 67.283 166.265 68.9063 166.476 69.6278C165.514 69.4474 165.273 69.9885 164.582 70.0486C164.672 70.5597 164.191 70.5296 164.371 71.1308C163.89 78.4358 164.311 86.6726 164.161 94.3382C164.191 94.5186 164.071 94.5486 163.95 94.5486H161.636C161.335 94.4284 161.125 94.218 161.004 93.9173V93.7069C161.636 93.5867 162.808 93.9775 163.109 93.4965C163.379 93.4063 163.529 93.2259 163.529 92.8652C164.01 85.4701 163.59 77.1732 163.74 69.4474C163.83 69.1769 164.01 68.9965 164.371 69.0265C165.002 68.9364 165.423 68.6959 165.844 68.3652V67.6738Z" fill="#D69E0F"/>
<path d="M127.426 70.4692V72.8441H127.636V70.6797V70.4692H127.426Z" fill="#EDBDB0"/>
<path d="M50.7692 73.6859C50.3183 73.1147 50.0477 72.4233 49.9275 71.5215C50.3784 72.0626 50.679 72.7841 50.7692 73.6859Z" fill="#DEB24F"/>
<path d="M187.067 70.8901C186.917 72.3331 187.338 74.3171 186.857 75.3993C186.887 75.1588 186.827 75.0085 186.646 74.9785V73.265C187.127 72.9042 186.707 71.6116 186.857 70.8901H187.067Z" fill="#F2DEBA"/>
<path d="M127.426 75.6102V72.8145H127.636C127.486 73.6862 127.907 75.1292 127.426 75.6102Z" fill="#D9756B"/>
<path d="M127.846 72.8442C128.207 73.2952 128.207 75.189 127.846 75.6399V72.8442Z" fill="#DEB24F"/>
<path d="M44.4563 73.0547C44.9373 73.7762 44.5164 75.4295 44.6667 76.4817C44.1857 75.7602 44.6066 74.1369 44.4563 73.0547Z" fill="#DE8A7D"/>
<path d="M128.688 71.9727C128.538 73.626 128.959 75.8506 128.478 77.1432V71.9727H128.688Z" fill="#EBC785"/>
<path d="M109.359 75.8505C109.509 73.2051 109.088 69.9886 109.569 67.6738C109.419 70.3192 109.84 73.5358 109.359 75.8505Z" fill="#D1544F"/>
<path d="M109.78 75.8505V71.5518H109.99C109.84 72.9045 110.261 74.8285 109.78 75.8505Z" fill="#E0B85E"/>
<path d="M180.153 75.8506C180.454 75.4899 182.167 75.4899 182.468 75.8506H180.153Z" fill="#DE8A7D"/>
<path d="M136.444 76.061C136.324 75.6702 136.715 74.7985 136.234 74.7684C136.354 74.0469 135.963 72.7844 136.444 72.3936C136.564 73.0549 136.173 74.2574 136.654 74.5279V76.031H136.444V76.061Z" fill="#EDBDB0"/>
<path d="M109.148 75.8506C109.148 76.061 109.419 76.0309 109.569 76.061C109.539 76.3015 109.178 76.2414 108.938 76.2714C108.788 75.6402 107.194 76.4518 107.044 75.8506H109.148Z" fill="#EDBDB0"/>
<path d="M41.7207 74.9785V86.3718C41.39 83.065 41.39 78.2853 41.7207 74.9785Z" fill="#F2DEBA"/>
<path d="M187.699 76.4819V71.9727C188.059 72.9647 188.059 75.4898 187.699 76.4819Z" fill="#F2D9B0"/>
<path d="M31.6502 76.9026V73.4756H31.8606C31.7103 74.5578 32.1312 76.1811 31.6502 76.9026Z" fill="#DE8A7D"/>
<path d="M32.071 76.9026V73.8965C32.4017 74.4075 32.4017 76.3916 32.071 76.9026Z" fill="#DEB24F"/>
<path d="M185.384 76.6924H187.488C187.278 77.0531 185.624 77.0531 185.384 76.6924Z" fill="#F2DEBA"/>
<path d="M31.6502 76.9026C31.6802 77.083 31.56 77.113 31.4398 77.113H29.125H28.9146C28.1931 75.0989 27.0809 67.8241 24.2852 67.8842C21.6097 67.9143 21.6398 73.5057 21.3391 76.9026C20.8582 77.564 21.279 79.1272 21.1287 80.1192V83.7867C21.279 84.8689 20.8582 86.4922 21.3391 87.2137C21.3692 89.4081 21.4594 91.5425 21.9704 93.2259C21.9404 93.767 22.0907 94.1278 22.3913 94.3081C22.7821 95.9314 23.4134 96.9836 24.9164 97.1038C28.644 97.4045 29.0048 91.8431 29.5459 88.2959H31.6502C31.8306 88.3861 32.0109 88.4762 32.071 88.7167V89.7989C32.041 93.7971 31.1391 96.8634 29.125 98.8173C28.3735 99.118 27.7422 99.5388 27.0207 99.8996C26.179 99.8996 25.7582 100.32 24.9164 100.32H22.6017C7.72135 99.2382 10.6974 57.6934 27.652 66.3811C28.8244 65.9903 30.0569 63.8861 31.6502 65.2989V73.4756V76.9026Z" fill="#C41230"/>
<path d="M110.411 67.0122C110.772 69.868 110.772 74.257 110.411 77.1128H108.096C107.285 76.6018 107.886 75.9705 108.938 76.241C109.178 76.211 109.539 76.2711 109.569 76.0306C109.75 76.0607 109.78 75.9404 109.78 75.8202C110.261 74.8282 109.84 72.8742 109.99 71.5214C110.231 70.1686 109.449 67.7036 110.411 67.0122Z" fill="#D69E0F"/>
<path d="M126.373 77.1431C126.013 75.9106 127.335 76.3916 127.847 76.0609V75.64C128.207 75.1891 128.207 73.2953 127.847 72.8443V70.6799C127.997 69.5977 127.576 67.9744 128.057 67.2529C128.237 67.3431 128.418 67.4333 128.478 67.6738V71.9726V77.1431H126.373Z" fill="#D69E0F"/>
<path d="M29.1251 77.1431H31.4398C31.1392 77.4737 29.4257 77.4737 29.1251 77.1431Z" fill="#D1544F"/>
<path d="M126.373 77.1431H128.478C128.237 77.4737 126.584 77.4737 126.373 77.1431Z" fill="#F2DEBA"/>
<path d="M29.9668 78.1953C29.7263 78.1652 29.7864 77.8045 29.7563 77.564H31.4398C31.3496 78.0449 30.4177 77.6542 29.9668 77.7744V78.1953Z" fill="#EBC785"/>
<path d="M32.7023 78.4058C32.1913 78.6763 30.1772 78.9469 29.9667 78.1954V77.7745C30.3876 77.6543 31.3496 78.045 31.4397 77.5641C31.8907 77.5941 32.1011 77.3837 32.071 76.9027C32.4318 76.3917 32.4318 74.4076 32.071 73.8966C32.2213 71.4616 31.8005 68.4555 32.2815 66.3812C32.522 66.3512 32.6422 66.4414 32.7023 66.5917V78.4058Z" fill="#D69E0F"/>
<path d="M32.7023 78.4059V66.5918C33.0631 70.0489 33.0631 74.9789 32.7023 78.4059Z" fill="#EBC785"/>
<path d="M34.3858 77.564V81.2014C34.0251 80.4799 34.0251 78.2854 34.3858 77.564Z" fill="#DE8A7D"/>
<path d="M160.193 69.3872C160.553 72.1829 160.553 76.4817 160.193 79.2774C160.193 78.9768 160.102 78.7964 159.982 78.6461C160.463 75.9706 160.042 72.3933 160.193 69.3872Z" fill="#EDBDB0"/>
<path d="M177.628 79.6981C177.778 76.7521 177.358 73.265 177.839 70.6797C177.688 73.6257 178.109 77.1429 177.628 79.6981Z" fill="#DEB24F"/>
<path d="M177.207 69.1768C177.358 72.6038 176.937 76.632 177.418 79.6982C177.418 79.9087 177.147 79.8786 176.997 79.9087C177.117 76.4215 176.696 72.3332 177.207 69.1768Z" fill="#DEB24F"/>
<path d="M21.1587 80.1492C21.3091 79.1271 20.8882 77.5639 21.3692 76.9326C21.4894 77.7142 21.0986 79.067 21.5796 79.5179V84.6885C21.0986 85.1394 21.5195 86.4621 21.3692 87.2737C20.8882 86.5523 21.3091 84.8989 21.1587 83.8467C21.4894 83.0651 21.4894 80.8707 21.1587 80.1492Z" fill="#F2DEBA"/>
<path d="M146.755 76.9028C147.116 78.1955 147.116 80.9912 146.755 82.2838C146.635 81.6225 147.026 80.42 146.545 80.1194V78.4059C146.996 78.3157 146.605 77.3538 146.755 76.9028Z" fill="#F2DEBA"/>
<path d="M50.7692 78.4058C51.13 78.8567 51.13 80.7505 50.7692 81.2015V78.4058Z" fill="#DE8A7D"/>
<path d="M177.207 80.3596C177.177 80.6001 176.877 80.6001 176.576 80.57C176.726 76.8424 176.305 72.5436 176.786 69.1768C177.057 72.7541 176.215 77.4737 177.207 80.3596Z" fill="#DE8A7D"/>
<path d="M86.8729 82.0734V76.9028C87.2336 78.1353 87.2336 80.8409 86.8729 82.0734Z" fill="#F2DEBA"/>
<path d="M40.879 82.4939C40.3981 83.1553 40.8189 84.7185 40.6686 85.7105C40.1876 84.989 40.6085 83.3357 40.4582 82.2835C40.8189 80.8406 40.8189 77.9246 40.4582 76.4817C40.6085 75.3995 40.1876 73.7762 40.6686 73.0547C40.8189 74.0768 40.3981 75.64 40.879 76.2713V82.4939Z" fill="#F2DEBA"/>
<path d="M136.234 76.2715V82.7347C135.903 81.0813 135.903 77.9249 136.234 76.2715Z" fill="#D1544F"/>
<path d="M146.755 82.7044C146.274 82.6142 146.665 81.6523 146.545 81.2014V80.1191C147.026 80.4198 146.635 81.6222 146.755 82.2836V82.7044Z" fill="white"/>
<path d="M51.8214 83.3656V78.646C52.152 79.7282 52.152 82.2834 51.8214 83.3656Z" fill="#EBC785"/>
<path d="M21.1588 83.7866V80.1191C21.4894 80.8707 21.4894 83.0652 21.1588 83.7866Z" fill="white"/>
<path d="M66.9422 83.366C67.5735 82.6445 67.8741 81.6224 67.7839 80.1494C70.249 83.5764 65.2588 85.35 66.5213 88.9574C66.0103 88.4163 66.1305 87.2138 65.6796 86.5825V85.0795C66.2809 84.6887 66.4913 83.9071 66.9422 83.366Z" fill="#D69E0F"/>
<path d="M40.879 83.9972V82.4941V76.2714C41.36 73.6861 40.4582 67.6137 43.4042 68.9665C42.2017 70.3193 41.6306 72.3033 41.7207 74.9788C41.36 78.2855 41.36 83.0653 41.7207 86.372C41.6907 87.6947 41.841 88.807 42.1416 89.799C41.6907 90.1598 41.6005 88.3561 41.2999 87.8751C41.0293 86.7328 41.2999 85.0193 40.879 83.9972Z" fill="#D69E0F"/>
<path d="M136.234 83.9972V82.7045V76.2413V74.7383C136.685 74.7683 136.324 75.6401 136.444 76.0309V82.7045C136.324 83.0953 136.715 83.9671 136.234 83.9972Z" fill="white"/>
<path d="M146.755 82.7044C146.575 83.3959 146.635 84.2977 146.334 84.8689C146.094 84.8388 146.154 84.4781 146.124 84.2376C146.274 83.2456 146.184 82.013 146.545 81.2314C146.665 81.6523 146.274 82.6143 146.755 82.7044Z" fill="#EDBDB0"/>
<path d="M136.654 82.7044V84.2074H136.444V86.3418C135.963 85.9811 136.384 84.6884 136.234 83.967C136.685 83.9369 136.324 83.0651 136.444 82.6743H136.654V82.7044Z" fill="#EDBDB0"/>
<path d="M152.196 84.8687C152.347 81.6521 151.926 77.8343 152.407 74.9785C152.407 75.2791 152.497 75.4595 152.617 75.6098C152.136 78.2552 152.557 81.8325 152.407 84.8687H152.196Z" fill="#DE8A7D"/>
<path d="M177.418 84.6582C177.598 84.7183 178.35 85.2294 177.839 85.2895C177.087 88.4459 178.32 93.6766 177.207 96.4723C177.327 92.5944 176.907 88.1754 177.418 84.6582Z" fill="#D69E0F"/>
<path d="M110.832 84.6582C111.193 84.8987 111.193 86.5821 110.832 86.8226V84.6582Z" fill="#DE8A7D"/>
<path d="M22.4214 78.8564V87.8748C22.0606 85.3798 22.0606 81.3515 22.4214 78.8564Z" fill="#F2DEBA"/>
<path d="M44.4563 85.7407C44.6066 84.5984 44.1857 82.8849 44.6667 82.0732C44.5164 83.2156 44.9373 84.9291 44.4563 85.7407Z" fill="#DE8A7D"/>
<path d="M65.6796 85.0794V86.5824C65.4391 86.6125 65.4993 86.9732 65.4692 87.2137C65.0784 86.853 65.1986 85.2297 65.4692 84.8389C65.6496 84.8389 65.6496 84.9591 65.6796 85.0794Z" fill="#F2DEBA"/>
<path d="M40.879 83.9971C41.2698 85.0192 41.0293 86.7026 41.2999 87.875H40.879C40.5483 87.5744 40.6987 86.7928 40.6686 86.1615C41.1496 85.8609 40.7588 84.6584 40.879 83.9971Z" fill="#EBC785"/>
<path d="M111.884 85.9512C112.245 86.1917 112.245 87.8751 111.884 88.1156V85.9512Z" fill="#DEB24F"/>
<path d="M29.5459 88.2959C29.7563 87.9352 31.4097 87.9352 31.6502 88.2959H29.5459Z" fill="#EDBDB0"/>
<path d="M152.827 88.9572C153.308 87.2437 151.535 79.0069 152.617 76.9326C152.587 76.9627 153.098 77.4136 153.038 77.594C152.557 80.9308 152.978 85.2295 152.827 88.9572Z" fill="#DEB24F"/>
<path d="M182.859 88.5361C182.949 86.4619 182.739 82.0429 182.859 79.2773C182.889 78.2251 182.468 76.6319 183.49 77.1429C182.378 79.9987 183.64 85.2895 182.859 88.5361Z" fill="#F2DEBA"/>
<path d="M181.175 90.0394C180.183 88.8069 182.408 89.4081 182.859 88.9572V88.5363C183.64 85.3198 182.378 80.029 183.49 77.1431C183.52 77.3234 183.7 77.3535 183.7 77.5639V89.5885C183.67 89.7688 183.49 89.7989 183.49 90.0093H181.175V90.0394Z" fill="#D69E0F"/>
<path d="M184.542 89.378C184.753 89.0172 186.406 89.0172 186.647 89.378H184.542Z" fill="#DE8A7D"/>
<path d="M123.007 89.7988C123.548 84.3877 121.564 74.6478 122.796 69.3871C122.916 68.8761 122.796 68.8159 123.217 69.3871C122.736 75.7601 123.157 83.065 123.007 89.7988Z" fill="#EDBDB0"/>
<path d="M153.459 89.5886C152.978 86.2217 153.399 81.9229 153.248 78.1953C153.729 81.5622 153.339 85.861 153.459 89.5886Z" fill="#DEB24F"/>
<path d="M111.884 88.0857C111.553 92.5949 108.697 94.5789 104.549 95.1801H102.024C100.461 95.0599 99.5287 94.3084 98.2361 93.8875C100.31 94.3685 105.571 94.8194 107.254 93.0157C108.427 92.6249 109.058 91.7231 109.78 90.8513C111.313 89.5587 111.343 85.801 111.253 83.5464C111.613 84.1777 111.734 85.0495 111.884 85.9212V88.0857Z" fill="#D69E0F"/>
<path d="M123.848 71.5518C123.969 75.4597 124.389 83.0352 124.059 88.326C123.999 89.0475 124.359 90.4604 123.427 89.8291C123.668 89.8591 123.818 89.799 123.848 89.6186C124.81 84.2376 123.127 77.3235 123.848 71.5518Z" fill="#EBC785"/>
<path d="M186.857 89.5884C187.338 89.889 186.947 91.0914 187.067 91.7528H186.857V89.5884Z" fill="#DE8A7D"/>
<path d="M60.4189 90.2498C60.1483 90.1897 60.0882 89.859 59.7876 89.8289C59.9379 83.0952 59.517 75.7903 59.998 69.4173V68.9964C60.99 69.1467 61.3808 68.6958 61.8919 68.3651V67.9443C61.8618 67.6437 61.8618 67.343 62.1023 67.313C62.9741 67.343 62.3127 68.9664 62.5232 69.6878C61.7416 69.6878 61.2005 69.8983 60.6293 70.1087V70.5296C60.1483 76.632 60.5692 83.7265 60.4189 90.2498Z" fill="#D69E0F"/>
<path d="M32.2815 92.3844C32.1612 91.6028 32.552 90.2501 32.071 89.7992V88.717C32.6422 88.5666 31.9207 89.739 32.4919 89.5887C32.3416 90.4605 32.7625 91.8734 32.2815 92.3844Z" fill="#EBC785"/>
<path d="M60.6293 90.6709H62.7336C62.4931 91.0316 60.8698 91.0316 60.6293 90.6709Z" fill="#EDBDB0"/>
<path d="M21.5796 84.6582C21.5796 87.4539 22.0907 89.7386 22.2109 92.384C21.9103 92.414 22.0305 92.895 22.0005 93.2558C21.4894 91.5723 21.3992 89.438 21.3692 87.2435C21.4894 86.4318 21.0986 85.0791 21.5796 84.6582Z" fill="white"/>
<path d="M66.1005 93.0455C67.2729 93.256 66.7618 91.7228 67.5735 91.5425C67.6336 92.264 68.0544 93.3161 67.5735 93.9173C67.0324 94.1278 66.2808 94.1879 65.4692 94.1278C64.0563 93.767 61.2005 93.767 59.7876 94.1278H56.4207H53.2643C53.3545 93.6768 53.114 93.5566 53.0538 93.256H55.579H59.1563H63.7857C64.4771 93.1057 65.7397 93.5265 66.1005 93.0455Z" fill="#D69E0F"/>
<path d="M124.9 93.0456C125.562 93.0156 124.931 91.6328 125.742 91.753C126.073 92.2039 126.073 93.6769 125.742 94.1279H116.483C116.243 94.0978 116.303 93.7371 116.273 93.4966C118.678 92.8352 122.526 93.6769 124.9 93.0456Z" fill="#D69E0F"/>
<path d="M63.7858 93.0454H66.1005C65.7398 93.5264 64.5072 93.1356 63.7858 93.2558V93.0454Z" fill="#EBC785"/>
<path d="M148.228 93.2561C149.912 92.7451 152.497 93.196 154.541 93.0457C152.827 93.5267 150.242 93.1058 148.228 93.2561Z" fill="#F2DEBA"/>
<path d="M22.2109 92.3843C22.5115 92.8051 22.4214 93.6168 22.6318 94.0978C22.4514 94.0677 22.4214 94.188 22.4214 94.3082C22.1208 94.1278 21.9704 93.7671 22.0005 93.226C22.0005 92.8953 21.8803 92.4444 22.2109 92.3843Z" fill="#F5E8D1"/>
<path d="M70.4895 93.6769C69.8281 92.3542 76.1109 93.3462 78.0649 93.0456C76.0809 93.8272 72.1128 92.5346 70.4895 93.6769Z" fill="#F2DEBA"/>
<path d="M137.286 93.4663H139.6C139.3 93.827 137.586 93.827 137.286 93.4663Z" fill="#F2DEBA"/>
<path d="M154.511 93.0456C155.262 93.0155 154.781 91.7229 155.563 91.753C155.743 92.2941 155.834 92.8953 155.773 93.6769C154.18 94.6388 150.904 93.8572 148.619 94.0977C148.378 94.0376 148.469 93.6769 148.198 93.6769V93.256C150.242 93.1057 152.827 93.5266 154.511 93.0456Z" fill="#D69E0F"/>
<path d="M161.034 93.8872C160.343 93.1658 162.507 93.5566 163.139 93.4664C162.838 93.9474 161.666 93.5566 161.034 93.6768V93.8872Z" fill="#F2DEBA"/>
<path d="M59.7876 94.0977C61.2005 93.737 64.0563 93.737 65.4692 94.0977H59.7876Z" fill="#DEB24F"/>
<path d="M100.972 93.8872H103.497C103.106 94.2479 101.332 94.2479 100.972 93.8872Z" fill="#DE8A7D"/>
<path d="M187.909 95.1801V90.8813C188.27 91.8132 188.27 94.2482 187.909 95.1801Z" fill="#EBC785"/>
<path d="M101.994 95.1797H104.519C104.158 95.5404 102.354 95.5404 101.994 95.1797Z" fill="#DEB24F"/>
<path d="M32.2815 92.3841C32.1913 95.2099 31.1692 97.1338 29.7563 98.6068C29.4858 98.6068 29.4557 98.8774 29.1251 98.8172C31.1091 96.8332 32.041 93.7669 32.0711 89.7988C32.5521 90.2497 32.1312 91.6025 32.2815 92.3841Z" fill="white"/>
<path d="M187.067 93.6768V93.8872V95.8412H187.278V93.6768H187.067Z" fill="#F2DEBA"/>
<path d="M176.786 96.4725C176.426 92.805 176.426 87.6646 176.786 83.9971V96.4725Z" fill="#DE8A7D"/>
<path d="M177.839 85.2897C177.688 89.0173 178.109 93.3161 177.628 96.6829C176.516 95.8112 176.997 93.1958 176.997 90.8811C176.997 88.5664 176.696 84.5381 177.418 84.6584C176.937 88.1756 177.358 92.6246 177.207 96.4725C178.32 93.6768 177.057 88.4461 177.839 85.2897Z" fill="#DEB24F"/>
<path d="M39.6165 96.6831C79.3876 96.3224 120.632 96.3224 160.373 96.6831H39.6165Z" fill="#EBC785"/>
<path d="M90.871 99.058C90.7207 98.3064 92.6146 98.5469 92.7649 98.8475C92.1035 98.8776 91.2318 98.6972 90.871 99.058Z" fill="#DE8A7D"/>
<path d="M108.728 99.0581C108.667 98.2765 110.772 98.5771 111.042 98.8477H110.832C110.11 98.9078 109.118 98.6673 108.728 99.0581Z" fill="#DE8A7D"/>
<path d="M135.813 98.6371C136.805 98.7874 138.338 98.3665 138.969 98.8475H135.813V98.6371Z" fill="#DE8A7D"/>
<path d="M150.513 99.0579C149.581 98.5469 152.467 98.2463 152.196 99.0579C151.986 98.8174 150.693 98.607 150.513 99.0579Z" fill="#DE8A7D"/>
<path d="M186.647 99.479C186.797 98.3367 186.376 96.6232 186.857 95.8115C186.737 96.9839 187.128 98.6974 186.647 99.479Z" fill="#D1544F"/>
<path d="M62.7337 100.14C62.5833 99.6591 61.5613 100.05 61.0502 99.9296C61.1705 100.381 60.7797 101.343 61.2606 101.433C61.922 101.403 62.7938 101.583 63.1545 101.222C63.1846 100.681 63.1846 100.17 62.7337 100.14ZM62.7337 98.8474C63.6355 98.7873 64.1165 99.148 64.6275 99.4787C64.5674 101.854 63.7257 102.665 64.8379 104.649C64.6876 105.13 63.6656 104.739 63.1545 104.86C63.1545 103.928 63.3048 102.846 62.5232 102.695C62.433 102.214 61.5011 102.605 61.0502 102.485V104.86H59.5772V98.8474H62.7337Z" fill="#C41230"/>
<path d="M49.7171 100.771C48.1539 101.162 48.1238 99.9598 46.9815 99.8996C45.3281 99.9297 45.0576 104.048 47.1919 103.778C48.3343 103.717 48.0337 102.214 49.7171 102.695C49.5969 104.649 48.1238 105.22 45.9294 105.07C40.849 103.146 47.2521 94.5487 49.7171 100.771Z" fill="#C41230"/>
<path d="M187.067 99.479V95.8115H187.278C187.128 96.9839 187.548 98.6974 187.067 99.479Z" fill="#EBC785"/>
<path d="M125.742 99.8998H122.796C122.646 100.05 122.315 101.102 122.796 101.192H125.532V102.275H122.586V103.567C123.127 104.319 125.532 103.116 125.742 104.229C125.442 105.611 122.676 104.529 121.323 104.86V98.8477H125.742V99.8998Z" fill="#C41230"/>
<path d="M62.7336 100.14C63.1845 100.17 63.1845 100.681 63.1545 101.222C62.7937 101.583 61.922 101.403 61.2606 101.433V100.14H62.7336Z" fill="white"/>
<path d="M138.969 100.14C139.42 100.17 139.42 100.681 139.39 101.222C138.879 101.403 138.278 101.493 137.496 101.433V100.14H138.969Z" fill="white"/>
<path d="M169 100.561C168.73 100.501 168.79 100.14 169 100.14H186.436C181.115 100.771 174.321 99.9297 169 100.561Z" fill="#F2DEBA"/>
<path d="M22.6017 100.351H24.9165C24.6459 100.711 22.9024 100.711 22.6017 100.351Z" fill="#D1544F"/>
<path d="M106.623 98.8477C106.894 100.351 107.345 101.703 107.675 103.146C108.006 101.764 108.487 100.561 108.728 99.0581C109.118 98.6673 110.11 98.9078 110.832 98.8477V104.86H109.569V100.561C109.269 100.892 109.239 101.493 109.148 102.064C108.878 102.936 108.577 103.778 108.517 104.86H106.834C106.894 103.567 106.323 102.936 106.202 101.854C106.172 101.313 106.082 100.832 105.781 100.561C105.631 101.914 106.052 103.838 105.571 104.86H104.519V98.8477H106.623Z" fill="#C41230"/>
<path d="M152.196 99.0581C152.347 99.9298 152.978 100.261 153.038 101.222C153.549 100.471 153.94 99.5691 154.3 98.6372H155.984C155.563 100.14 154.481 100.982 154.09 102.515C153.609 102.876 154 104.168 153.88 104.89H152.407C152.286 104.168 152.677 102.906 152.196 102.515C151.835 101.192 150.964 100.321 150.513 99.0881C150.693 98.6071 151.986 98.8176 152.196 99.0581Z" fill="#C41230"/>
<path d="M22.2109 100.771H25.1269C24.6459 101.132 22.6919 101.132 22.2109 100.771Z" fill="#EBC785"/>
<path d="M34.8066 102.936C34.4459 102.695 34.4459 101.012 34.8066 100.771V102.936Z" fill="#EBC785"/>
<path d="M138.969 100.14C138.127 99.2383 136.474 100.441 137.496 101.433C138.248 101.493 138.849 101.403 139.39 101.222C139.42 100.681 139.42 100.17 138.969 100.14ZM138.969 98.8475C140.021 98.6371 140.232 99.2984 140.863 99.4788C140.833 100.531 141.043 101.824 140.021 101.854C140.863 102.214 140.472 103.838 140.863 104.649C140.773 105.13 139.841 104.74 139.39 104.86C139.27 104.559 139.631 103.748 139.18 103.778C139.21 103.146 139.21 102.605 138.548 102.695C138.518 102.214 137.647 102.605 137.286 102.485V104.86H135.813V98.8475H138.969Z" fill="#C41230"/>
<path d="M187.909 95.1801C187.789 97.0439 188.18 99.4488 187.699 100.982C187.518 101.162 187.218 101.222 186.857 101.192H169.211C168.97 101.162 169.031 100.802 169 100.561C174.321 99.9298 181.115 100.772 186.436 100.14C186.737 100.02 186.947 99.8095 187.067 99.5089C187.548 98.7273 187.127 97.0138 187.278 95.8415V93.677C187.278 92.685 187.097 90.3703 187.909 90.8813V95.1801Z" fill="#D69E0F"/>
<path d="M91.0815 102.485H92.344C92.314 101.704 92.2539 101.012 91.7128 100.772C91.5925 101.463 91.352 101.974 91.0815 102.485ZM92.7649 98.8477C93.2759 100.982 94.2078 102.666 94.6588 104.86H93.1858C92.8851 104.74 93.1557 104.018 92.7649 103.988C92.5545 103.718 90.5704 103.447 90.6606 104.199C90.5404 104.379 90.4502 104.559 90.4502 104.83H88.9772C89.4582 102.726 90.3299 101.072 90.871 99.0281C91.2318 98.6974 92.1036 98.8778 92.7649 98.8477Z" fill="#C41230"/>
<path d="M165.213 100.771C165.574 101.072 165.574 102.846 165.213 103.146V100.771Z" fill="#DEB24F"/>
<path d="M169.211 101.192H186.857C181.476 101.553 174.622 101.553 169.211 101.192Z" fill="#F2DEBA"/>
<path d="M125.532 102.274C125.021 102.755 123.638 102.365 122.796 102.485V103.357C123.428 103.868 124.961 103.447 125.953 103.567V105.07C124.42 104.92 122.315 105.371 121.113 104.86H121.323C122.646 104.499 125.412 105.611 125.742 104.228C125.532 103.146 123.127 104.319 122.586 103.567V102.274H125.532Z" fill="#DE8A7D"/>
<path d="M76.3815 103.567H79.5379V105.07C78.0048 104.92 75.9005 105.341 74.6981 104.86H74.9085C76.2312 104.499 78.9968 105.611 79.3275 104.228C79.1772 103.146 76.8625 104.318 76.3815 103.567Z" fill="#DE8A7D"/>
<path d="M111.042 104.86C110.892 105.341 109.87 104.95 109.359 105.07C109.209 104.138 109.629 102.635 109.148 102.064C109.239 101.493 109.269 100.892 109.569 100.561V104.86H110.832H111.042Z" fill="#EDBDB0"/>
<path d="M154.09 102.485V105.07H152.196V102.485C152.677 102.846 152.286 104.138 152.407 104.86H153.88C154.03 104.138 153.609 102.876 154.09 102.485Z" fill="#EDBDB0"/>
<path d="M190.855 105.281C191.156 104.619 192.689 104.709 192.749 105.491C192.629 105.491 192.508 105.521 192.539 105.701C192.328 105.701 192.388 105.431 192.328 105.281H191.276V106.994H191.066C190.945 106.483 191.336 105.461 190.855 105.281Z" fill="#F2DEBA"/>
<path d="M190.855 105.281C191.336 105.431 190.945 106.483 191.066 106.994H190.855C190.555 106.694 190.555 105.611 190.855 105.281Z" fill="white"/>
<path d="M192.749 105.491C193.05 105.792 193.14 106.994 192.539 106.994C192.569 106.814 192.448 106.784 192.328 106.784C191.877 106.333 192.358 106.092 192.539 105.702C192.478 105.521 192.599 105.521 192.749 105.491Z" fill="white"/>
<path d="M39.406 106.994H160.583C120.692 107.355 79.3275 107.355 39.406 106.994Z" fill="#F2DEBA"/>
<path d="M191.276 106.994C191.577 106.934 191.336 106.363 191.697 106.363C191.757 106.543 192.118 107.445 192.328 106.784C192.448 106.784 192.569 106.814 192.539 106.994C192.539 107.625 190.855 107.625 190.855 106.994H191.066H191.276Z" fill="#EDCF91"/>
<path d="M115.04 38.0033C115.131 38.7549 114.71 40.0776 115.672 39.9273C116.483 39.6567 116.183 37.6426 115.04 38.0033ZM111.884 46.18C111.523 45.9997 111.523 45.3984 111.042 45.3082C110.772 46.0598 111.493 46.8113 111.884 46.18ZM106.834 19.726C112.906 16.9604 121.323 20.8383 120.061 28.3236C121.203 29.4659 121.955 31.7506 122.586 33.0432C122.526 32.923 122.616 32.7426 122.586 32.6223C123.037 32.5923 122.676 33.3739 122.796 33.7046C122.315 34.2156 122.706 35.6285 122.586 36.5003H122.375C122.165 38.5745 119.369 38.0033 118.167 39.0855C119.309 40.1978 119.399 42.3923 120.271 43.8052C119.76 44.5868 119.459 45.5487 118.798 46.18C118.077 44.3162 118.047 40.0475 115.431 41.4604C115.371 42.9033 116.123 43.4745 116.273 44.677C116.123 45.5788 115.101 45.6089 115.431 47.0518C116.423 46.9616 116.874 47.4426 117.956 47.2622C117.926 47.4426 117.746 47.4727 117.746 47.6831C117.325 47.7432 117.325 48.2543 116.904 48.3144H115.852V49.1862H116.062C115.882 49.577 115.281 49.5469 115.221 50.0579C115.04 50.088 115.01 50.2684 114.8 50.2684C114.469 49.9678 114.62 49.1561 114.589 48.5549C113.507 48.2843 112.846 47.5929 111.433 47.6831C111.403 48.5248 111.433 49.2763 111.643 49.8475C112.335 50.2984 113.267 50.4788 114.169 50.7193C113.748 51.1702 113.177 51.4107 112.696 51.8015C112.726 51.3506 111.944 51.7113 111.643 51.5911C111.674 51.8316 111.613 52.1923 111.854 52.2524C111.824 52.4929 111.463 52.4328 111.223 52.4628C110.261 52.6733 110.832 51.2904 110.381 50.9598C109.449 50.1782 107.315 50.6592 107.435 48.7954C108.517 48.8254 108.878 49.607 110.17 49.4266C110.201 48.5849 110.17 47.8334 109.96 47.2923C108.637 47.0819 107.555 46.6009 106.383 46.2101C106.804 45.7291 107.886 46.6309 108.277 45.7892C108.487 46.3003 109.239 46.2401 109.96 46.2101C109.99 45.3383 110.591 45.0677 111.012 45.1279C110.471 44.4665 109.449 44.2862 108.697 43.8352C108.998 43.8352 109.148 43.7451 109.329 43.6248V42.5426C111.794 42.8131 112.155 45.2481 113.958 46.2101C113.958 45.699 114.319 45.5788 114.169 44.9174C114.529 44.6769 114.529 42.9935 114.169 42.753C114.379 40.4984 114.199 39.5966 113.748 37.823C115.161 36.1095 119.79 37.7027 120.481 35.2377C120.752 30.0371 118.858 28.0831 114.169 29.4358C114.229 29.015 113.928 28.9549 113.958 28.5641C114.8 28.6242 115.521 28.5641 115.852 28.1432V27.6923C116.994 27.6622 117.686 27.1211 118.377 26.6101C118.558 22.3414 115.672 21.199 112.485 20.3874C111.914 20.0266 109.9 20.0266 109.329 20.3874C108.998 20.4174 108.547 20.3273 108.487 20.5978C107.946 20.3273 106.864 20.5677 106.834 19.726Z" fill="#BD382B"/>
<path d="M111.253 24.686C112.425 21.5896 119.55 24.4455 115.882 26.8504C115.551 26.3995 115.131 26.0387 114.83 25.5577C115.191 25.5577 115.371 25.4074 115.461 25.1369C115.461 24.5056 113.778 24.5056 113.778 25.1369C113.838 25.4375 114.409 25.197 114.409 25.5577C113.477 25.4074 112.966 25.678 112.726 26.2191C112.485 25.4375 111.523 25.4074 111.253 24.686Z" fill="#BD382B"/>
<path d="M84.7986 39.5065C84.7986 40.0776 84.7085 40.739 85.0091 41.0095C85.6103 41.1899 85.5502 40.7089 86.0612 40.7991C86.1214 39.8672 85.46 39.6868 84.7986 39.5065ZM83.5361 40.5887H83.7465C83.3858 36.8009 88.2557 38.274 88.1655 40.7991C87.3839 41.6709 85.0091 42.8132 83.9569 41.4304C83.5661 41.4304 83.8066 40.7089 83.5361 40.5887Z" fill="#BD382B"/>
<path d="M91.7128 42.5124H93.8171C100.761 42.4222 97.7551 51.2603 94.0275 52.613C93.4564 52.0719 92.4944 51.8916 91.9232 51.3204C95.26 51.11 98.9576 43.0235 92.9754 43.805C92.6748 44.286 92.4343 44.8572 92.5545 45.729C93.5165 45.9995 94.6288 45.2781 95.0797 45.729C94.5386 51.621 87.895 44.8572 91.7128 42.5124Z" fill="#BD382B"/>
<path d="M105.15 43.5948C104.85 43.4746 104.609 43.2641 104.308 43.1739C104.158 42.3623 104.669 42.242 104.519 41.4604C105.21 41.4604 105.24 42.1519 105.992 42.0917V42.3022C105.331 42.3623 105.331 43.0838 105.15 43.5948Z" fill="#FFC426"/>
<path d="M104.098 45.308C103.737 45.0375 103.286 44.8571 103.256 44.2258C103.527 44.1356 103.677 43.9553 103.677 43.5645C104.128 43.6847 104.369 44.0154 104.729 44.2258C104.489 44.5565 104.489 45.1276 104.098 45.308Z" fill="#FFC426"/>
<path d="M116.513 70.4698C117.175 69.8084 117.055 72.9047 116.724 73.2655C116.574 72.3937 116.994 70.9808 116.513 70.4698Z" fill="#F2DEBA"/>
<path d="M59.1564 93.0454H55.5791V93.2558H59.1564V93.0454Z" fill="#EBC785"/>
<path d="M101.574 17.5917C101.273 17.3212 101.363 16.6598 101.363 16.0886C101.754 15.9985 101.904 15.6377 102.415 15.6678C102.836 16.2991 102.355 17.5015 101.574 17.5917Z" fill="white"/>
<path d="M40.459 76.4819C40.8197 77.9249 40.8197 80.8408 40.459 82.2838V76.4819Z" fill="white"/>
<path d="M40.8799 82.4941V83.9972C40.7596 84.6586 41.1504 85.861 40.6694 86.1316V85.7107C40.8197 84.7187 40.3989 83.1555 40.8799 82.4941Z" fill="white"/>
<path d="M147.598 78.6465C147.958 79.4281 147.958 81.7127 147.598 82.5244V78.6465Z" fill="#F2DEBA"/>
<path d="M87.7155 79.2778C88.0762 79.7288 88.0762 81.6226 87.7155 82.0735V79.2778Z" fill="#F2DEBA"/>
<path d="M181.176 90.0396H183.491C183.22 90.3702 181.477 90.3702 181.176 90.0396Z" fill="#F2DEBA"/>
<path d="M116.304 93.4663C116.063 92.5645 119.16 93.2559 120.302 93.0455H124.931C122.526 93.6768 118.679 92.835 116.304 93.4663Z" fill="#F2DEBA"/>
<path d="M53.2952 94.0977H56.4516C55.8504 94.4584 53.8363 94.4584 53.2952 94.0977Z" fill="#F2DEBA"/>
<path d="M40.459 107.866H159.532C120.362 108.226 79.689 108.226 40.459 107.866Z" fill="#F2DEBA"/>
<path d="M52.0326 66.171C54.2271 65.3293 58.7363 65.7201 61.2614 65.9606C58.2553 66.0808 54.678 65.66 52.0326 66.171Z" fill="#EDBDB0"/>
<path d="M158.299 65.9605C160.133 65.5998 163.41 65.5998 165.244 65.9605H158.299Z" fill="#EDBDB0"/>
<path d="M167.949 65.9605C173.48 65.5998 180.485 65.5998 186.016 65.9605H167.949Z" fill="#EDBDB0"/>
<path d="M135.814 98.8476V104.86V105.07C135.453 103.417 135.453 100.261 135.814 98.6372V98.8476Z" fill="#EDBDB0"/>
<path d="M163.35 69.5977C163.199 77.2633 163.62 85.5001 163.139 92.805C163.26 85.1694 162.839 76.9026 163.35 69.5977Z" fill="#DE8A7D"/>
<path d="M80.3804 75.1895C80.7412 77.2637 80.7412 80.841 80.3804 82.9152V75.1895Z" fill="#DE8A7D"/>
<path d="M59.578 68.9668V90.0398C59.097 83.4564 59.5179 75.941 59.3675 68.9668H59.578Z" fill="#EDBDB0"/>
<path d="M140.233 74.1069C140.593 77.1732 140.593 81.7726 140.233 84.8689V74.1069Z" fill="#EDBDB0"/>
<path d="M63.7867 93.0454H59.1572V93.2558H63.7867V93.0454Z" fill="#DEB24F"/>
<path d="M89.8198 31.57C89.0382 31.4197 88.918 31.9308 88.1364 31.7805C84.4989 23.4535 91.4732 14.2848 100.101 17.1707C100.041 17.4713 99.8002 17.5915 99.8903 18.0424C98.2971 18.5535 97.1848 19.5756 96.1026 20.6277C95.8922 18.9443 93.4272 19.1246 92.9462 20.4173C90.3008 20.6878 91.0523 24.9566 93.5775 24.7161C92.856 24.9866 92.7057 25.8283 92.3149 26.4296C90.8719 26.3995 90.3308 27.2713 90.421 28.8044C90.6014 29.4056 91.2327 29.5259 91.6836 29.8866C90.9621 30.2774 90.3308 30.8486 89.8198 31.57Z" fill="#B5121C"/>
<path d="M114.41 25.5276C114.41 25.1669 113.838 25.4074 113.778 25.1068C113.778 24.4755 115.462 24.4755 115.462 25.1068C115.372 25.3773 115.191 25.5577 114.83 25.5276H114.41Z" fill="#B5121C"/>
<path d="M113.147 33.4939C112.906 32.8325 113.477 32.9828 113.567 32.6221C114.71 33.7945 113.267 36.2595 113.147 33.4939Z" fill="#B5121C"/>
<path d="M74.6982 98.8472C75.7504 98.4865 78.2755 98.4865 79.3277 98.8472H74.9087H74.6982Z" fill="#DE8A7D"/>
<path d="M121.113 98.8472C122.165 98.4865 124.691 98.4865 125.743 98.8472H121.324H121.113Z" fill="#DE8A7D"/>
<path d="M60.6302 70.4692C60.4799 76.9926 60.9008 84.087 60.4198 90.2496C60.5701 83.7263 60.1492 76.6318 60.6302 70.4692Z" fill="#EBC785"/>
<path d="M91.7133 100.771C92.2544 101.012 92.3146 101.733 92.3446 102.485H91.082C91.3526 101.974 91.5931 101.463 91.7133 100.771Z" fill="white"/>
<path d="M70.9106 68.7559C71.3916 75.4295 70.9707 83.0049 71.1211 90.0393C70.9106 90.0393 70.8806 90.2197 70.7002 90.2497C71.2112 83.516 70.7904 75.8503 70.9106 68.7559Z" fill="#EDBDB0"/>
<path d="M163.77 69.3872C163.62 77.113 164.041 85.44 163.56 92.805C163.68 85.0792 163.259 76.7823 163.77 69.3872Z" fill="#DEB24F"/>
<path d="M56.8418 92.835C58.7357 92.4743 62.1025 92.4743 63.9964 92.835H56.8418Z" fill="#D1544F"/>
<path d="M98.6572 89.7986C100.341 94.2176 106.443 91.5422 106.623 88.506C106.984 83.0949 96.5529 80.2692 95.7112 73.4452C94.9897 67.5833 100.25 63.1943 105.992 66.3508C107.195 66.1704 107.826 65.3587 109.569 65.7195V67.6434C109.088 69.9281 109.509 73.1747 109.359 75.8201H109.149H107.044H106.834C105.992 72.7839 105.391 67.1925 101.784 67.6434C101.092 67.7336 100.25 68.425 100.1 69.3569C99.4388 73.7158 108.577 77.3232 110.381 82.4636C110.652 83.1851 110.471 84.0268 110.802 84.6281V86.7925C110.742 88.4459 110.111 89.5281 109.539 90.6704C108.818 91.6324 107.736 92.2636 106.804 93.0452C105.662 93.3158 104.7 93.7667 103.437 93.917H100.912C97.575 93.436 94.629 91.2416 94.1781 88.1152C93.7272 84.9888 95.4406 82.133 97.5449 81.6821C100.16 81.1109 101.874 82.644 101.543 85.109C100.942 86.7324 99.1983 87.1532 98.3867 88.536C98.567 88.8968 98.1762 89.7986 98.6572 89.7986Z" fill="#C41230"/>
<path d="M112.727 66.1707C117.146 65.6596 122.466 66.1105 127.216 65.9602C127.667 67.0725 127.306 69.0265 127.427 70.4694V72.8443V75.64V75.8504H125.322C124.962 73.3553 124.42 71.0707 123.218 69.3872C122.797 68.8161 122.917 68.8762 122.797 69.3872C121.565 74.648 123.549 84.3878 123.008 89.7989C123.218 90.5805 124.631 90.1596 124.901 90.8811C124.962 91.6627 124.871 92.2639 124.691 92.805H115.252V90.4302C115.643 90.1296 116.635 90.4302 116.935 90.0093C117.416 83.5461 116.995 76.1811 117.146 69.3872C115.643 69.9885 115.252 73.5958 114.62 75.8504H112.727C112.276 74.9486 112.636 73.2351 112.516 71.9725C112.997 71.3111 112.576 69.748 112.727 68.7559V66.1707Z" fill="#C41230"/>
<path d="M164.402 71.1006C164.252 78.7662 164.672 87.003 164.191 94.3079C164.312 86.6724 163.891 78.4055 164.402 71.1006Z" fill="#DEB24F"/>
<path d="M100.551 13.5031C98.0861 13.7135 96.1922 14.4951 94.2382 15.2166C91.5928 16.5393 89.3082 18.1926 87.5045 20.3871C86.2419 21.8301 85.1898 23.4534 84.3481 25.3172C83.8671 26.9706 82.845 28.0828 82.8751 30.2472C81.9732 33.4939 82.5444 37.9129 83.5063 40.5583C83.807 40.6785 83.5364 41.4 83.9272 41.4301C84.3481 43.2939 85.4002 44.5264 86.2419 45.9393C87.0536 47.1117 87.9254 48.254 88.9775 49.1558C89.9395 49.9074 90.7812 50.7491 91.9235 51.3202C92.4947 51.8914 93.4266 52.0718 94.0278 52.6129C96.2524 53.5748 98.5971 54.3865 101.603 54.5368C101.814 54.8975 103.467 54.8975 103.708 54.5368C105.391 54.3865 106.984 54.1761 108.337 53.665C108.998 53.2742 110.02 53.2141 110.652 52.7933C110.892 52.673 111.133 52.5528 111.283 52.3724C111.524 52.3423 111.884 52.4025 111.914 52.162C112.485 52.3123 112.335 51.7411 112.756 51.7411C113.237 51.3804 113.808 51.1098 114.229 50.6589C114.59 50.6589 114.77 50.4785 114.86 50.238C115.071 50.238 115.101 50.0577 115.281 50.0276C116.303 49.4264 117.115 48.5847 117.806 47.6528C117.806 47.4423 117.987 47.3822 118.017 47.2319C118.317 46.8712 118.618 46.5405 118.858 46.1497C119.52 45.5184 119.82 44.5564 120.331 43.7748C121.504 41.7307 122.195 39.2356 122.646 36.4699C123.127 35.9589 122.706 34.546 122.857 33.6742C122.736 33.3736 123.097 32.562 122.646 32.592C121.233 21.0785 114.89 14.5853 103.317 13.473C102.836 13.1423 100.972 13.1423 100.551 13.5031ZM100.972 12H104.76C115.943 14.1043 122.736 20.6877 124.089 32.8626V35.2374C122.616 47.3221 116.033 54.2061 104.339 55.8595H101.814C89.6088 54.7472 83.1757 47.6828 81.2217 36.0791V32.6521C82.6045 20.4472 89.4885 13.8638 100.972 12Z" fill="#C7910D"/>
<path d="M102.415 15.6675C101.904 15.6375 101.753 15.9982 101.363 16.0884C101.363 16.6596 101.272 17.3209 101.573 17.5915C102.355 17.5013 102.836 16.2988 102.415 15.6675ZM102.836 15.2166C103.948 16.2988 103.347 18.4933 101.152 18.0123C100.37 16.7498 100.671 14.6755 102.836 15.2166Z" fill="#D69E0F"/>
<path d="M94.4489 22.3109C94.4188 22.7017 94.7194 22.7618 94.6593 23.1827C93.5169 23.1827 93.1262 21.5594 93.3967 20.8079C94.3587 18.1324 97.4851 22.5815 94.4489 22.3109Z" fill="#D69E0F"/>
<path d="M115.251 27.9022H113.989C113.688 27.4212 113.448 26.8801 113.568 25.9783C114.83 25.8881 115.311 26.6095 115.251 27.9022Z" fill="#D69E0F"/>
<path d="M110.621 33.915C111.072 34.366 110.621 34.9972 109.99 34.9972C109.539 34.5463 109.99 33.915 110.621 33.915Z" fill="#D69E0F"/>
<path d="M187.068 67.2529C188.271 67.794 187.459 70.4394 187.699 71.9726V76.4818C187.729 76.6621 187.609 76.6922 187.489 76.6922H185.385C184.032 75.3695 186.617 76.2713 186.858 75.3996C187.339 74.3173 186.918 72.3333 187.068 70.8904V67.2529Z" fill="#D69E0F"/>
<path d="M103.888 68.9664C102.535 69.237 101.122 69.4474 101.152 71.1309C99.0778 69.2971 102.385 67.1026 103.888 68.9664Z" fill="#D69E0F"/>
<path d="M116.724 73.2649C116.273 74.3772 116.002 75.6699 115.882 77.1429C115.101 77.0226 113.718 77.5036 113.567 76.722C113.567 75.8803 115.101 76.5717 115.251 75.8502C115.431 73.8061 116.002 72.1827 116.513 70.4692C116.994 70.9803 116.574 72.3932 116.724 73.2649Z" fill="#D69E0F"/>
<path d="M39.6172 96.6827C34.2362 96.8931 34.1461 106.603 39.4068 106.994C79.2982 107.354 120.693 107.354 160.584 106.994C165.995 106.483 165.935 96.9533 160.374 96.6827C120.633 96.322 79.3884 96.322 39.6172 96.6827ZM34.8074 100.771C35.4688 94.2778 45.2988 95.841 53.2951 95.841H147.808C155.444 95.841 164.492 94.1576 165.244 100.771V103.146C164.582 106.002 162.688 107.535 159.562 107.866H40.4589C37.2424 107.565 35.5289 105.731 34.7773 102.935V100.771H34.8074Z" fill="#D69E0F"/>
<path d="M123.428 89.7989C122.947 83.6965 123.338 76.6922 123.218 70.229C123.668 70.4094 123.548 71.1609 123.849 71.5216C123.127 77.2934 124.811 84.2376 123.849 89.5885C123.819 89.7689 123.668 89.8591 123.428 89.7989Z" fill="#D69E0F"/>
</svg>
