<?xml version="1.0" encoding="UTF-8"?>
<svg width="44" height="44" viewBox="0 0 44 44" fill="none" xmlns="http://www.w3.org/2000/svg">
<g clip-path="url(#clip0_182_3594)">
<path d="M29.7344 15.5547C21.9032 15.5547 15.5547 21.9031 15.5547 29.7344C15.5547 37.5655 21.9032 44 29.7344 44C37.5655 44 44 37.5655 44 29.7344C44 21.9031 37.5655 15.5547 29.7344 15.5547ZM29.7344 28.4453C31.8668 28.4453 33.6016 30.18 33.6016 32.3125C33.6016 33.9909 32.5206 35.4083 31.0234 35.9422V38.7578H28.4453V35.9422C26.9481 35.4083 25.8672 33.9909 25.8672 32.3125H28.4453C28.4453 33.0237 29.0244 33.6016 29.7344 33.6016C30.4444 33.6016 31.0234 33.0237 31.0234 32.3125C31.0234 31.6013 30.4444 31.0234 29.7344 31.0234C27.6019 31.0234 25.8672 29.2887 25.8672 27.1562C25.8672 25.4779 26.9481 24.0604 28.4453 23.5265V20.7109H31.0234V23.5265C32.5206 24.0604 33.6016 25.4779 33.6016 27.1562H31.0234C31.0234 26.445 30.4444 25.8672 29.7344 25.8672C29.0244 25.8672 28.4453 26.445 28.4453 27.1562C28.4453 27.8675 29.0244 28.4453 29.7344 28.4453Z" fill="#1580C4"/>
<path d="M13.0451 28.3834C13.2298 26.0854 13.92 23.9435 14.9401 22H12.9766V16.8438H10.3984V14.2656H12.2328L9.23278 7.90092L11.5642 6.80066L14.2656 12.5309L16.9672 6.80058L19.2986 7.90084L16.2985 14.2656H18.1328V16.8438H15.5547V20.9423C18.2869 16.5508 22.9477 13.482 28.3834 13.0451C27.7612 5.79674 21.6711 0 14.2656 0C6.44815 0 0 6.44695 0 14.2656C0 21.6722 5.79769 27.7612 13.0451 28.3834Z" fill="#1580C4"/>
<path d="M36.1797 10.9704L33.1937 8.16905L31.4313 10.0497L37.4688 15.7145L43.5062 10.0497L41.7438 8.16905L38.7578 10.9704V2.66406H28.4453V5.24219H36.1797V10.9704Z" fill="#1580C4"/>
<path d="M7.82031 33.0296L10.8063 35.831L12.5687 33.9503L6.53124 28.2855L0.49379 33.9503L2.2562 35.831L5.24218 33.0296V41.3359H15.5547V38.7578H7.82031V33.0296Z" fill="#1580C4"/>
</g>
<defs>
<clipPath id="clip0_182_3594">
<rect width="44" height="44" fill="white"/>
</clipPath>
</defs>
</svg>
