<?xml version="1.0" encoding="UTF-8"?>
<svg width="44" height="44" viewBox="0 0 44 44" fill="none" xmlns="http://www.w3.org/2000/svg">
<path d="M12.8199 26.3493L12.9704 24.2876C13.0132 23.7005 13.2767 23.1514 13.7078 22.7506C14.1389 22.3499 14.7057 22.1271 15.2943 22.1271H15.6165L15.1482 23.8856C15.1249 23.973 15.1191 24.0641 15.1311 24.1537C15.143 24.2433 15.1726 24.3297 15.218 24.4079L15.3719 24.6727C15.9154 25.61 16.2975 26.632 16.5021 27.6959C16.3408 27.6303 16.1705 27.5896 15.9969 27.5749C15.5788 27.5374 15.1615 27.6558 14.8254 27.9073L14.0585 27.1789C13.7044 26.8417 13.2712 26.5991 12.7988 26.4733C12.8097 26.4327 12.8167 26.3912 12.8199 26.3493ZM13.4153 37.2091C13.0843 37.2547 12.7472 37.2206 12.432 37.1099C12.1168 36.9991 11.8325 36.8147 11.6028 36.5721C11.3731 36.3294 11.2045 36.0355 11.1111 35.7147C11.0177 35.3939 11.0022 35.0555 11.0657 34.7274L11.6295 31.8187C12.2476 32.7388 13.1162 33.4626 14.1327 33.9046L19.7125 36.3422L13.4153 37.2091ZM18.8203 41.1684L19.0953 37.8152L22.1159 37.3993C22.1199 37.3988 22.1236 37.3978 22.1274 37.3972L25.1382 38.7124C25.7908 38.9985 26.4958 39.1459 27.2084 39.1453H27.2106C28.3107 39.1482 29.383 38.7993 30.2707 38.1496C31.1584 37.4998 31.8151 36.5832 32.1449 35.5337L32.1693 35.4564L32.4254 41.2456L18.8203 41.1684ZM32.0771 31.1996C32.0378 31.2732 32.0124 31.3534 32.0021 31.4361L30.8344 35.118C30.5922 35.8888 30.1099 36.5619 29.458 37.0391C28.806 37.5163 28.0186 37.7725 27.2106 37.7703H27.209C26.6857 37.7707 26.168 37.6624 25.6887 37.4523L14.6831 32.6446C13.8221 32.2703 13.1017 31.6329 12.6254 30.8239L11.043 28.1476C11.0399 28.1425 11.0387 28.1364 11.0397 28.1305C11.0407 28.1246 11.0438 28.1192 11.0484 28.1153C11.3392 27.8693 11.7106 27.7393 12.0914 27.7504C12.4722 27.7615 12.8355 27.9129 13.1115 28.1755L14.3295 29.3324C14.4538 29.4505 14.6179 29.5178 14.7894 29.5212C14.9609 29.5246 15.1275 29.4637 15.2564 29.3506L15.6233 29.0287C15.6581 28.9981 15.6987 28.9749 15.7427 28.9604C15.7867 28.946 15.8332 28.9406 15.8793 28.9445C15.9255 28.9485 15.9704 28.9617 16.0113 28.9835C16.0522 29.0052 16.0883 29.035 16.1174 29.071L16.8302 29.9533C16.8319 29.9555 16.8339 29.9572 16.8357 29.9594C16.851 29.9778 16.8673 29.9955 16.8845 30.0122C16.888 30.0157 16.8914 30.0193 16.895 30.0227C16.9141 30.0406 16.9342 30.0574 16.9552 30.073C16.9591 30.0759 16.9633 30.0786 16.9673 30.0816C16.9874 30.0959 17.0082 30.1091 17.0298 30.1212C17.0322 30.1226 17.0344 30.1241 17.0369 30.1254C17.0603 30.138 17.0844 30.1492 17.1091 30.159C17.1116 30.16 17.1138 30.1614 17.1162 30.1623L26.3441 33.7434C26.4309 33.7771 26.5237 33.7928 26.6168 33.7896C26.7098 33.7864 26.8013 33.7642 26.8855 33.7246C26.9698 33.685 27.0451 33.6286 27.1069 33.559C27.1688 33.4893 27.2158 33.4079 27.2452 33.3195L29.7516 25.7856L33.7779 25.8366L32.0771 31.1996ZM17.8366 27.3515C17.5986 26.1661 17.1676 25.0279 16.5608 23.9822L16.5502 23.9639L17.0019 22.2678L18.4084 22.6124C18.7506 22.6962 19.0673 22.8621 19.3309 23.0959C19.5945 23.3296 19.7972 23.6241 19.9214 23.9538L20.1398 24.5334C19.2811 25.3946 18.5096 26.3385 17.8366 27.3515ZM21.1079 25.51L21.3125 25.5881V30.316L18.3384 29.1619C19.0932 27.8257 20.0248 26.5973 21.1079 25.51ZM22.6875 30.8496V26.1128L23.7999 26.5372C23.8953 26.5737 23.9889 26.6139 24.0811 26.656C24.0689 26.7073 24.0627 26.7598 24.0625 26.8126V31.3832L22.6875 30.8496ZM25.4375 31.9168V27.5822L25.4383 27.5829L25.5844 27.7256C26.2268 28.3491 26.6815 29.1401 26.8971 30.0089L26.168 32.2003L25.4375 31.9168ZM16.8413 7.24753L16.4202 8.21631C15.9454 9.30602 15.8606 10.5261 16.1801 11.671L15.8581 11.4958C15.4547 11.2757 15.1369 10.9264 14.9558 10.504C14.6562 9.80178 14.5012 9.04639 14.4999 8.28292C14.4986 7.51944 14.651 6.76352 14.9482 6.06023C15.2453 5.35695 15.681 4.7207 16.2293 4.18944C16.7777 3.65818 17.4274 3.24278 18.1397 2.96802L18.5877 2.79494C19.5331 2.43103 20.548 2.28356 21.5578 2.36336L21.6323 2.36929C22.8135 2.46064 23.9527 2.8482 24.9446 3.49619C25.9365 4.14417 26.7491 5.03168 27.3073 6.07672C27.9534 7.28156 28.6399 8.56031 29.171 9.54903C29.8372 10.7866 30.7934 11.8443 31.9577 12.6315L32.7859 13.1901C34.0459 14.0397 35.0088 15.2618 35.54 16.6856C36.0713 18.1093 36.1443 19.6635 35.7489 21.1307C35.476 20.0507 34.9124 19.0661 34.1193 18.2839C33.3262 17.5017 32.3339 16.9518 31.2502 16.694L28.6626 16.0762C27.9011 15.8944 27.2371 15.4303 26.8048 14.7777C26.3724 14.1251 26.204 13.3327 26.3336 12.5607L26.5833 11.0731C26.5998 10.9746 26.5947 10.8736 26.5682 10.7773C26.5418 10.6809 26.4946 10.5915 26.4301 10.5152C26.3655 10.439 26.2852 10.3777 26.1945 10.3357C26.1039 10.2936 26.0052 10.2718 25.9052 10.2718C23.3051 10.2697 20.7864 9.36429 18.78 7.71048L17.9094 6.99153C17.8272 6.92371 17.7305 6.8759 17.6267 6.85188C17.5229 6.82786 17.415 6.82828 17.3114 6.8531C17.2078 6.87793 17.1114 6.92648 17.0298 6.99493C16.9482 7.06338 16.8836 7.14985 16.8412 7.24753H16.8413ZM26.3859 16.3805L26.3085 16.4622C25.8315 16.9674 25.1976 17.2966 24.5099 17.3963C23.8222 17.4961 23.121 17.3604 22.5201 17.0115L22.0051 16.1821C22.928 16.1525 23.8275 15.8842 24.6158 15.4035L25.337 14.9652C25.4944 15.3011 25.693 15.616 25.9282 15.9027C26.0686 16.0732 26.2216 16.2329 26.3859 16.3805ZM18.7071 13.2983L18.1876 12.6425C17.7593 12.1029 17.4859 11.4569 17.3967 10.7737C17.3075 10.0906 17.4058 9.39604 17.6811 8.7645L17.7383 8.63319L17.9047 8.77069C19.9441 10.4516 22.4605 11.4486 25.0977 11.6205L24.9781 12.333C24.9082 12.7495 24.8977 13.1738 24.947 13.5932L23.902 14.2292C23.0716 14.7342 22.0853 14.9184 21.1287 14.7471C20.172 14.5757 19.3109 14.0606 18.7075 13.2987L18.7071 13.2983ZM21.92 18.2515C22.7849 18.7273 23.7833 18.9024 24.7586 18.7494C25.7338 18.5964 26.6306 18.1239 27.3083 17.4061L27.5558 17.1439C27.8091 17.2582 28.0726 17.3485 28.3429 17.4134L30.9305 18.0311C31.5628 18.1821 32.1572 18.4618 32.6766 18.8528C33.196 19.2438 33.6292 19.7376 33.9492 20.3035C34.2692 20.8693 34.4691 21.4951 34.5364 22.1417C34.6038 22.7883 34.5371 23.4418 34.3406 24.0615L34.2117 24.4669L29.2659 24.4044C29.1199 24.4019 28.977 24.4463 28.858 24.5309C28.7391 24.6156 28.6504 24.7361 28.6049 24.8749L27.5559 28.0277C27.2769 27.5554 26.9364 27.1224 26.5432 26.74L26.3965 26.5974C25.7936 26.0096 25.0765 25.5518 24.2894 25.2526L21.4758 24.1786L21.2083 23.4689C21.0054 22.9301 20.6742 22.4489 20.2434 22.067C19.8126 21.685 19.2951 21.4138 18.7359 21.2769L16.6778 20.7726C16.6697 20.7705 16.6616 20.7687 16.6535 20.767C16.6017 20.7559 16.5489 20.751 16.4959 20.7521H15.3802C15.8866 20.1306 16.5757 19.6843 17.3499 19.4763L21.92 18.2515Z" fill="#1580C4"/>
<path d="M5.71665 13.8348L5.7463 13.815C6.06462 13.6027 6.44666 13.5073 6.82741 13.545C7.20815 13.5827 7.56407 13.7512 7.83458 14.0218L8.25 14.4375L8.6069 14.0298C8.88312 13.7142 9.26887 13.5152 9.68616 13.4732C10.1034 13.4311 10.5211 13.5491 10.8548 13.8032C11.1136 14.0004 11.3235 14.2547 11.4679 14.5463C11.6124 14.8379 11.6875 15.1589 11.6875 15.4844C11.6875 15.8012 11.6162 16.1141 11.4789 16.3997C11.3416 16.6853 11.1418 16.9364 10.8944 17.1344L8.25 19.25L5.57451 17.1097C5.33675 16.9195 5.14482 16.6782 5.01291 16.4038C4.88101 16.1293 4.81252 15.8287 4.8125 15.5242C4.8125 15.19 4.89502 14.8609 5.05275 14.5661C5.21047 14.2714 5.43852 14.0202 5.71665 13.8348Z" fill="#1580C4"/>
</svg>
