<?xml version="1.0" encoding="UTF-8"?>
<svg width="122" height="62" viewBox="0 0 122 62" fill="none" xmlns="http://www.w3.org/2000/svg">
<g clip-path="url(#clip0_798_76)">
<path d="M65.4621 1.41283C65.0674 1.47145 64.6879 2.93286 63.9253 3.69449C63.3681 4.24308 62.6711 4.20993 62.302 4.88909C62.1613 5.14175 62.2068 5.57552 62.0484 5.9903C61.736 6.82268 60.641 6.89666 60.641 7.80261C60.637 8.78173 61.5535 8.96769 62.3491 9.66343C62.9698 10.2213 63.0293 10.6066 63.7802 10.8782C64.4226 11.0965 65.3769 10.381 66.2364 10.6385C66.9407 10.8487 67.6157 11.0007 67.7757 11.7296C67.9164 12.4023 67.7656 13.4425 66.9101 13.3224C66.6219 13.2893 65.3705 12.8668 63.8365 13.0313C61.9824 13.2432 59.8679 13.8508 59.6609 15.9299C59.5467 17.0901 60.9758 18.4594 62.3555 18.1808C63.3082 17.9933 62.858 16.8613 63.3758 16.3127C64.0572 15.6081 67.9164 18.7694 71.5018 18.7694C73.0117 18.7694 74.1349 18.3854 75.2504 17.211C75.3549 17.1205 75.4816 16.9288 75.6428 16.9159C75.7951 16.9288 76.06 17.0796 76.1477 17.1435C79.0348 19.4777 81.2189 24.1615 91.8349 24.2149C93.3287 24.2238 95.0279 24.9413 96.4176 26.2148C97.6562 27.3661 98.3794 29.159 99.0841 30.9766C100.147 33.7037 102.05 36.3573 104.937 39.3088C105.094 39.4673 107.471 41.3253 107.662 41.4635C107.691 41.485 107.866 41.9034 107.805 42.137C107.735 43.9085 107.479 49.0556 111.295 49.2893C112.228 49.3362 111.984 48.6764 111.984 48.2236C111.982 47.3262 111.819 46.4356 112.289 45.5167C112.931 44.2546 110.926 43.6736 110.984 40.9437C111.026 38.9082 109.325 39.2555 108.464 37.7047C107.966 36.8064 107.524 36.3302 107.556 35.2314C107.75 29.0482 106.248 24.9846 105.499 23.9865C104.914 23.2337 104.431 22.935 104.965 22.5865C108.15 20.4694 108.872 18.5026 108.872 18.5026C110.567 14.4992 112.09 10.8427 114.19 9.23208C114.612 8.89897 115.698 8.08478 116.362 7.76582C118.323 6.83642 119.354 6.27247 119.924 5.71621C120.823 4.83411 121.537 2.99269 120.672 1.87693C119.599 0.500007 117.742 1.59232 116.924 2.08148C111.068 5.57552 110.205 11.7397 108.177 15.2803C106.559 18.1081 103.928 20.186 101.575 20.3558C99.8137 20.4872 97.9115 20.1286 96.0193 19.2926C91.4164 17.2632 88.8983 14.6435 88.3017 14.1799C87.0656 13.2201 77.4662 3.74179 69.6868 3.35491C69.6868 3.35491 68.7211 1.41 68.4787 1.37928C67.9103 1.3053 67.3278 2.53951 66.9101 2.68383C66.5178 2.81401 65.8581 1.34775 65.4621 1.41283ZM31.2183 57.9789C30.4862 57.9611 29.8644 57.3575 29.8644 56.6109L29.8668 32.2096H21.869V59.106C21.869 60.4255 22.9311 61.5 24.2348 61.5H38.2111C39.5232 61.5 40.5728 60.4255 40.5728 59.106V32.2092H32.5827L32.5762 56.6109C32.5762 57.3575 31.9543 57.9611 31.2183 57.9789ZM57.9922 32.2096H45.8904C44.4561 32.2096 43.2899 33.3807 43.2899 34.8357V61.5H51.2953V37.0413C51.2964 36.8638 51.3323 36.6882 51.4009 36.5247C51.4695 36.3611 51.5694 36.2127 51.695 36.088C51.8206 35.9633 51.9695 35.8647 52.133 35.7978C52.2965 35.731 52.4715 35.6972 52.648 35.6983C53.3946 35.6983 53.9947 36.2781 54.0108 37.0207V61.5H61.9824V37.0207C61.9925 36.2781 62.5915 35.6987 63.3376 35.6987C64.0761 35.6987 64.6883 36.2918 64.6931 37.0409V61.5H72.6985V34.8357C72.6985 33.3807 71.5283 32.2092 70.0968 32.2092L57.9922 32.2096ZM16.5353 54.14H8.45552V61.5H0.463379V32.2096H16.5859C18.0291 32.2096 19.1559 33.3888 19.1559 34.8478V51.4998C19.1569 51.8464 19.0898 52.1898 18.9584 52.5103C18.8271 52.8308 18.6342 53.1221 18.3907 53.3674C18.1471 53.6127 17.8579 53.8073 17.5394 53.94C17.2209 54.0726 16.8796 54.1407 16.5349 54.1404L16.5353 54.14ZM11.1682 37.0922C11.1706 36.9112 11.1374 36.7315 11.0706 36.5634C11.0038 36.3952 10.9046 36.2421 10.7788 36.1126C10.653 35.9831 10.503 35.8798 10.3374 35.8087C10.1718 35.7377 9.9939 35.7001 9.81387 35.6983H8.45592V50.513H9.81387C10.5198 50.513 11.1746 49.949 11.1682 49.1373V37.0922Z" fill="#E63129"/>
<path d="M86.1164 61.5V54.1464H83.3993V61.5H75.4104V34.8356C75.4104 33.3807 76.5766 32.2091 78.0109 32.2091H91.506C92.9428 32.2091 94.1078 33.3807 94.1078 34.8356V61.5H86.1164ZM86.1164 50.5182V37.0307C86.0975 36.2857 85.501 35.7129 84.7549 35.7129C84.016 35.7129 83.407 36.3083 83.3993 37.0526V50.5182H86.1164Z" fill="#E63129"/>
</g>
<defs>
<clipPath id="clip0_798_76">
<rect width="122" height="61" fill="white" transform="translate(0 0.5)"/>
</clipPath>
</defs>
</svg>
